<?xml version="1.0" encoding="utf-8"?>
<!-- Generator: Adobe Illustrator 21.0.0, SVG Export Plug-In . SVG Version: 6.00 Build 0)  -->
<svg version="1.1" id="Layer_1" xmlns="http://www.w3.org/2000/svg" xmlns:xlink="http://www.w3.org/1999/xlink" x="0px" y="0px"
	 viewBox="0 0 40 40" style="enable-background:new 0 0 40 40;" xml:space="preserve">
<style type="text/css">
	.st0{fill:#FFFFFF;}
</style>
<path id="appIconPath" class="st0" d="M40,10.2c0-1.2-0.1-2.5-0.4-3.7c-0.5-2.2-1.8-3.8-3.6-5.1c-1-0.6-2-1-3.1-1.2
	C32,0.1,31.1,0,30.2,0c-0.1,0-0.1,0-0.2,0H10C9.7,0,9.5,0,9.2,0C8,0.1,6.7,0.3,5.6,0.7C3.3,1.6,1.7,3.1,0.8,5.3
	C0.5,6.1,0.3,6.9,0.2,7.7C0.1,8.3,0,9,0,9.7c0,0.1,0,0.1,0,0.2v20.4c0,0.2,0,0.5,0,0.7c0.1,1.4,0.3,2.7,0.8,4
	c1.1,2.4,2.9,3.9,5.4,4.7c0.7,0.2,1.4,0.3,2.2,0.4C9.3,40,10.3,40,11.2,40c6.1,0,12.3,0,18.4,0c0.9,0,1.7-0.1,2.6-0.2
	c1.4-0.2,2.7-0.6,3.8-1.4c1.4-0.9,2.5-2.1,3.1-3.7c0.3-0.7,0.5-1.4,0.6-2.2c0.2-1.1,0.2-2.3,0.2-3.4C40,22.9,40,16.5,40,10.2
	 M29.3,16.9c0,3.2,0,6.3,0,9.5c0,0.7-0.1,1.4-0.4,2c-0.5,1-1.3,1.6-2.3,1.9c-0.6,0.2-1.2,0.3-1.8,0.3c-1.6,0.1-3-1-3.2-2.6
	c-0.2-1.3,0.4-2.7,1.7-3.4c0.5-0.3,1.1-0.4,1.7-0.5c0.6-0.1,1.3-0.3,1.9-0.4c0.5-0.1,0.8-0.4,0.9-0.9c0-0.1,0-0.2,0-0.3
	c0-3,0-6,0-9.1c0-0.1,0-0.2,0-0.3c-0.1-0.3-0.2-0.4-0.5-0.4c-0.3,0-0.5,0.1-0.8,0.1c-1.3,0.2-2.5,0.5-3.8,0.8
	c-1.3,0.3-2.6,0.5-3.9,0.8c-0.8,0.2-1.5,0.3-2.3,0.5c0,0-0.1,0-0.1,0c-0.5,0.1-0.6,0.3-0.6,0.8c0,0.1,0,0.1,0,0.2c0,4.3,0,8.7,0,13
	c0,0.7-0.1,1.4-0.4,2C14.9,32,14.1,32.7,13,33c-0.6,0.2-1.2,0.3-1.8,0.3c-1.6,0.1-2.9-1-3.2-2.6c-0.2-1.4,0.4-2.8,1.9-3.5
	c0.6-0.2,1.2-0.4,1.8-0.5c0.5-0.1,1-0.2,1.4-0.3c0.6-0.1,1-0.5,1-1.2c0-0.1,0-0.2,0-0.3c0-4.9,0-9.9,0-14.8c0-0.2,0-0.4,0.1-0.6
	c0.1-0.5,0.5-0.7,0.9-0.9c0.4-0.1,0.9-0.2,1.3-0.3c1.2-0.2,2.4-0.5,3.7-0.7c1.3-0.3,2.5-0.5,3.8-0.8c1.1-0.2,2.2-0.5,3.3-0.7
	c0.4-0.1,0.7-0.1,1.1-0.2c0.5,0,0.9,0.3,0.9,0.8c0,0.1,0,0.2,0,0.4C29.3,10.5,29.3,13.7,29.3,16.9L29.3,16.9z"/>
</svg>
