<svg xmlns="http://www.w3.org/2000/svg" viewBox="0 0 167.49 167.49"><defs><style>.cls-1{fill:#fff;}</style></defs><title>Fichier 1</title><g id="Calque_2" data-name="Calque 2"><g id="Layer_1" data-name="Layer 1"><path class="cls-1" d="M83.74,0a83.74,83.74,0,1,0,83.74,83.74A83.74,83.74,0,0,0,83.74,0Zm38.41,120.79a5.22,5.22,0,0,1-7.18,1.74c-19.67-12-44.42-14.73-73.57-8.07a5.22,5.22,0,1,1-2.32-10.17c31.9-7.29,59.26-4.15,81.34,9.33A5.22,5.22,0,0,1,122.15,120.79ZM132.4,98a6.53,6.53,0,0,1-9,2.15C100.91,86.3,66.59,82.29,40,90.38a6.53,6.53,0,1,1-3.79-12.49C66.59,68.65,104.4,73.12,130.25,89A6.53,6.53,0,0,1,132.4,98Zm.88-23.74c-27-16-71.52-17.5-97.29-9.68a7.83,7.83,0,1,1-4.55-15c29.58-9,78.76-7.24,109.83,11.2a7.83,7.83,0,0,1-8,13.47Z"/></g></g></svg>