<?xml version="1.0" encoding="utf-8"?>
<!-- Generator: Adobe Illustrator 21.0.0, SVG Export Plug-In . SVG Version: 6.00 Build 0)  -->
<svg version="1.1" id="Calque_1" xmlns="http://www.w3.org/2000/svg" xmlns:xlink="http://www.w3.org/1999/xlink" x="0px" y="0px"
	 viewBox="0 0 94.9 74.7" style="enable-background:new 0 0 94.9 74.7;" xml:space="preserve">
<style type="text/css">
	.st0{fill:#3B121C;}
</style>
<g id="Calque_2">
</g>
<g id="Calque_1_1_">
	<path class="st0" d="M91.9,29.9L65.1,3.1C61-1,54.3-1,50.2,3.1s-4.1,10.8,0,14.9l8.8,8.8H10.5C4.7,26.8,0,31.5,0,37.3
		s4.7,10.5,10.5,10.5h48.6l-8.9,8.9c-4.1,4.1-4.1,10.8,0,14.9c2.1,2.1,4.7,3.1,7.4,3.1s5.4-1,7.4-3.1l26.8-26.8c2-2,3.1-4.6,3.1-7.4
		C95,34.5,93.9,31.8,91.9,29.9z"/>
</g>
</svg>
