<svg xmlns="http://www.w3.org/2000/svg" width="814.875" height="216.781" viewBox="0 0 814.875 216.781">
  <defs>
    <style>
      .cls-1 {
        fill: #3b121c;
        fill-rule: evenodd;
      }
    </style>
  </defs>
  <path id="CARAVAN_PALACE" data-name="CARAVAN PALACE" class="cls-1" d="M59.55,71.676c-16.123,0-27.046-8.584-27.046-23.671S43.426,24.335,59.55,24.335c10.922,0,19.5,4.162,25.1,12.876l26.266-13.656C102.979,10.028,84-.507,59.94-0.507,24.312-.507.387,16.921,0.387,48.005S24.312,96.517,58.77,96.517c25.225,0,44.339-10.4,52.531-24.191L85.165,58.54C79.184,67.774,70.472,71.676,59.55,71.676Zm141.988,21.85h33.417L188.8,2.485H154.337l-46.16,91.041h33.028l7.411-15.737h45.51Zm-43.3-36.286,13.133-28.093L184.5,57.24H158.238ZM354.056,93.526L328.44,63.743C342.093,59.191,351.2,49.566,351.2,34.609c0-21.72-19.244-32.125-43.559-32.125H243.012V93.526h31.466V66.734H295.8l22.105,26.792h36.148ZM274.478,45.534V25.245h30.557c8.192,0,14.043,2.341,14.043,10.145s-5.851,10.145-14.043,10.145H274.478ZM447.154,93.526h33.417L434.411,2.485H399.953l-46.16,91.041H386.82l7.412-15.737h45.51Zm-43.3-36.286,13.133-28.093L430.12,57.24H403.854ZM465.093,2.485l43.3,91.041H541.55l43.3-91.041H551.3L525.166,63.743,499.03,2.485H465.093ZM662.6,93.526H696.02L649.86,2.485H615.4l-46.16,91.041h33.027l7.412-15.737h45.51ZM619.3,57.24l13.133-28.093L645.569,57.24H619.3ZM784.564,2.485V51.907L737.624,2.485H704.076V93.526h30.557V39.031l52.792,54.495h27.826V2.485H784.564ZM68.912,122.741H5.068v91.041H36.795V188.421H68.912c26.136,0,43.559-10.795,43.559-32.9C112.471,133.536,95.048,122.741,68.912,122.741Zm-2.6,44.48H36.795V145.5H66.311c8.192,0,14.043,2.731,14.043,10.795S74.5,167.221,66.311,167.221Zm131.2,46.561h33.417l-46.16-91.041H150.308l-46.16,91.041h33.027l7.412-15.737H190.1Zm-43.3-36.286L167.342,149.4,180.474,177.5H154.209Zm116.5,11.965v-66.72H238.982v91.041h90.11V189.461H270.709Zm152.519,24.321h33.418l-46.161-91.041H376.028l-46.16,91.041H362.9l7.412-15.737h45.51Zm-43.3-36.286L393.062,149.4,406.2,177.5H379.929Zm133.144,14.436c-16.123,0-27.046-8.584-27.046-23.67s10.923-23.671,27.046-23.671c10.923,0,19.5,4.162,25.1,12.876l26.266-13.657c-7.932-13.526-26.916-24.06-50.972-24.06-35.627,0-59.553,17.427-59.553,48.512s23.926,48.512,58.383,48.512c25.226,0,44.34-10.4,52.532-24.191L538.689,178.8C532.708,188.031,524,191.932,513.073,191.932Zm93.877-1.04V178.276h55V157.207h-55V145.631h67.484v-22.89H575.873v91.041h99.992v-22.89H606.95Z" transform="translate(-0.375)"/>
</svg>
