<svg id="Groupe_1" data-name="Groupe 1" xmlns="http://www.w3.org/2000/svg" width="842.063" height="415.406" viewBox="0 0 842.063 415.406">
  <defs>
    <style>
      .cls-1 {
        fill: #fff;
      }

      .cls-1, .cls-2 {
        fill-rule: evenodd;
      }

      .cls-2 {
        fill: #ffd312;
      }
    </style>
  </defs>
  <path id="CARAVAN_PALACE" data-name="CARAVAN PALACE" class="cls-1" d="M59.55,71.676c-16.123,0-27.046-8.584-27.046-23.671S43.426,24.335,59.55,24.335c10.922,0,19.5,4.162,25.1,12.876l26.266-13.656C102.979,10.028,84-.507,59.94-0.507,24.312-.507.387,16.921,0.387,48.005S24.312,96.517,58.77,96.517c25.225,0,44.339-10.4,52.531-24.191L85.165,58.54C79.184,67.774,70.472,71.676,59.55,71.676Zm141.988,21.85h33.417L188.8,2.485H154.337l-46.16,91.041h33.028l7.411-15.737h45.51Zm-43.3-36.286,13.133-28.093L184.5,57.24H158.238ZM354.056,93.526L328.44,63.743C342.093,59.191,351.2,49.566,351.2,34.609c0-21.72-19.244-32.125-43.559-32.125H243.012V93.526h31.466V66.734H295.8l22.105,26.792h36.148ZM274.478,45.534V25.245h30.557c8.192,0,14.043,2.341,14.043,10.145s-5.851,10.145-14.043,10.145H274.478ZM447.154,93.526h33.417L434.411,2.485H399.953l-46.16,91.041H386.82l7.412-15.737h45.51Zm-43.3-36.286,13.133-28.093L430.12,57.24H403.854ZM465.093,2.485l43.3,91.041H541.55l43.3-91.041H551.3L525.166,63.743,499.03,2.485H465.093ZM662.6,93.526H696.02L649.86,2.485H615.4l-46.16,91.041h33.027l7.412-15.737h45.51ZM619.3,57.24l13.133-28.093L645.569,57.24H619.3ZM784.564,2.485V51.907L737.624,2.485H704.076V93.526h30.557V39.031l52.792,54.495h27.826V2.485H784.564ZM68.912,122.741H5.068v91.041H36.795V188.421H68.912c26.136,0,43.559-10.795,43.559-32.9C112.471,133.536,95.048,122.741,68.912,122.741Zm-2.6,44.48H36.795V145.5H66.311c8.192,0,14.043,2.731,14.043,10.795S74.5,167.221,66.311,167.221Zm131.2,46.561h33.417l-46.16-91.041H150.308l-46.16,91.041h33.027l7.412-15.737H190.1Zm-43.3-36.286L167.342,149.4,180.474,177.5H154.209Zm116.5,11.965v-66.72H238.982v91.041h90.11V189.461H270.709Zm152.519,24.321h33.418l-46.161-91.041H376.028l-46.16,91.041H362.9l7.412-15.737h45.51Zm-43.3-36.286L393.062,149.4,406.2,177.5H379.929Zm133.144,14.436c-16.123,0-27.046-8.584-27.046-23.67s10.923-23.671,27.046-23.671c10.923,0,19.5,4.162,25.1,12.876l26.266-13.657c-7.932-13.526-26.916-24.06-50.972-24.06-35.627,0-59.553,17.427-59.553,48.512s23.926,48.512,58.383,48.512c25.226,0,44.34-10.4,52.532-24.191L538.689,178.8C532.708,188.031,524,191.932,513.073,191.932Zm93.877-1.04V178.276h55V157.207h-55V145.631h67.484v-22.89H575.873v91.041h99.992v-22.89H606.95Z" transform="translate(-0.375)"/>
  <path id="Chronologic" class="cls-2" d="M365.24,358.137a25.164,25.164,0,0,0-2.241,2.9,17.017,17.017,0,0,0,4.689-5.64Q366.382,356.867,365.24,358.137Zm5.513-6.492a13.984,13.984,0,0,0,1.6-3.564c-0.215.275-.4,0.518-0.56,0.725a2.4,2.4,0,0,0-.377.7,6.331,6.331,0,0,1-1.506,2.806,13.451,13.451,0,0,0-1.9,2.67l-0.32.414Zm1.6-3.564,0.48-.622a1.05,1.05,0,0,1-.5.438Zm1.21-2.208-0.48.621a1.015,1.015,0,0,1,.5-0.438Zm-10.138,6.8a14.185,14.185,0,0,0,3.553-5.774l0.776-1.22a23.163,23.163,0,0,0,1.417-2.048,10.6,10.6,0,0,1,1.441-1.864,11.331,11.331,0,0,1-1.549,3.931,57.4,57.4,0,0,0-3.63,6.625,15.745,15.745,0,0,1-4.185,5.2,6.514,6.514,0,0,0-1.179.991,2.252,2.252,0,0,1-1.41.647,10.044,10.044,0,0,0-1.973.626,15.741,15.741,0,0,1,1.761-2.279Q360.938,355.14,363.421,352.677Zm11.316-19.46a9.5,9.5,0,0,1-2.669,5.381,5.063,5.063,0,0,1-.98,2.552,4.23,4.23,0,0,1,.98-2.552,14.8,14.8,0,0,1,2.669-5.381h0Zm-26.56-89.36a3.473,3.473,0,0,1-.914,1.61,0.537,0.537,0,0,1-.343.231l-0.047-.368a0.693,0.693,0,0,0,.468-0.713,2.282,2.282,0,0,1,.421-1.08l0.368-.047Zm1.666-3.013c-0.246.031-.207-0.16,0.113-0.575l0.664-.645a1.067,1.067,0,0,0-.273.782c0.032,0.247-.137.391-0.5,0.438h0Zm2.284-4.026,0.183-.023,0.207,0.16a2.712,2.712,0,0,1-.548.817,4.582,4.582,0,0,0-.572.633,2.786,2.786,0,0,1,.73-1.587h0Zm5.67-7.445a19.136,19.136,0,0,1,1.923-1.74,13.957,13.957,0,0,1-2.881,3.729A5.041,5.041,0,0,1,357.8,229.373Zm10.138-3.165a5.027,5.027,0,0,1-.607.358,1.833,1.833,0,0,0-.584.541Zm2.5-2q1.171-.894,2.5-2l-2.433,1.058A3.878,3.878,0,0,0,368.1,226C368.876,225.405,369.653,224.807,370.434,224.208Zm5.221-3.282a5.415,5.415,0,0,0-2.547,1.26,13.432,13.432,0,0,0,2.547-1.26h0Zm-0.31-3.879-0.687.461a15.618,15.618,0,0,1-1.938.9c-0.71.278-1.48,0.595-2.3,0.949a10.543,10.543,0,0,0-2.693,1.558q-1.271,1-2.622,2.109a22.274,22.274,0,0,1-2.21,1.683,8.472,8.472,0,0,0-2,1.843,1.065,1.065,0,0,1-.687.461,9.016,9.016,0,0,1,1.532-1.876q0.913-.861,2.083-1.947a4.935,4.935,0,0,0,1.168-1.082,11.843,11.843,0,0,1,1.144-1.267,17.509,17.509,0,0,1,5.451-4.058,11.669,11.669,0,0,1,3.6-1.021,1.079,1.079,0,0,1,.782.273c0.55,0.429.581,0.672,0.094,0.735A1.646,1.646,0,0,0,375.345,217.047Zm6.449-.64q-3.2-3.133-8.064-1.767a12.066,12.066,0,0,1-1.433.464,6.913,6.913,0,0,0-1.593.671l-4.331,2.607a16.688,16.688,0,0,0-4.214,3.526,2.886,2.886,0,0,1-1.007.876,11.277,11.277,0,0,0-2.347,2.074q-0.972,1.152-1.956,2.21-1.282,1.66-2.756,3.246t-2.757,3.246q-1.44,1.864-2.7,3.7a28.711,28.711,0,0,0-2.284,4.026,3.682,3.682,0,0,1-.765,1.311,7.255,7.255,0,0,0-.949,1.334,34.033,34.033,0,0,0-3.036,5.429q-1.437,3.36-2.884,6.622t-3.251,6.669a8.227,8.227,0,0,0-.944,2.827,10.69,10.69,0,0,1-.921,3.011,39.34,39.34,0,0,0-1.819,5.459q-0.682,2.7-1.453,5.412-1.049,3.494-2.011,6.883t-1.62,7.02l-1.535,8.409a27.031,27.031,0,0,0-.65,5.123,41.564,41.564,0,0,1-.466,5.1q-0.561,4.368-.754,8.682a49.565,49.565,0,0,0,.347,8.541,10.872,10.872,0,0,1,.146,2.595,15.616,15.616,0,0,0,.1,4.466q0.378,2.192.68,4.579a5.662,5.662,0,0,0,.21.906,6.9,6.9,0,0,1,.233,1.09,34.254,34.254,0,0,0,.642,3.557q0.4,1.725,1.033,3.694a27.746,27.746,0,0,0,4.33,8.311,36.7,36.7,0,0,0,6.735,6.7,17.7,17.7,0,0,0,11.02,3.722,20.5,20.5,0,0,0,11.754-3.652l1.008-.876a9.072,9.072,0,0,1,1.483-2.99,7,7,0,0,0-1.671,1.521c-0.216.275-.467,0.246-0.758-0.09l-0.024-.183a0.162,0.162,0,0,1,.16-0.207,0.6,0.6,0,0,0,.5-0.438,2.755,2.755,0,0,1,.457-0.805q2.72-3.525,5.03-6.617a55.955,55.955,0,0,0,4.273-6.707l1.506-2.806q0.456-.805.925-1.518a5.694,5.694,0,0,1,.972-1.151l0.368-.047a0.234,0.234,0,0,1,.047.367,1.922,1.922,0,0,0-.043,1.126,13.57,13.57,0,0,0,2.566-5.555,6.1,6.1,0,0,0,1.735-3.022,5.9,5.9,0,0,0,.191-1.518,3.838,3.838,0,0,1,1.326-3.716,2.268,2.268,0,0,0,1.182-2.017,4.872,4.872,0,0,0-.037-1.676,6.51,6.51,0,0,1,.189-2.73q0.381-1.262.925-2.638a41.794,41.794,0,0,0,2.134-7.926,67.352,67.352,0,0,0,.826-8.318,5.4,5.4,0,0,0-1.892-4.984l-2.221-1.955a0.381,0.381,0,0,0-.494-0.217,0.657,0.657,0,0,1-.678-0.193,0.454,0.454,0,0,0-.548.07c-0.215.279-.252,0.47-0.113,0.575a0.765,0.765,0,0,1,.254.527,1.661,1.661,0,0,0,.275.712,5.971,5.971,0,0,1,.885,3.992q-0.181,1.519-.358,3.032a27.023,27.023,0,0,1-.539,3.056,36.467,36.467,0,0,0-1.043,4.24,23.031,23.031,0,0,1-1.224,4.262q-1.524,4.116-2.98,8.035t-3.368,7.9a23.2,23.2,0,0,0-1.243,2.679,13.79,13.79,0,0,1-1.263,2.494q-1.212,2.212-2.225,4.485a22.62,22.62,0,0,1-2.769,4.554l-0.754,1.4a22.479,22.479,0,0,1-2.078,2.693q-0.664.645-1.247,1.186a10.8,10.8,0,0,0-1.221,1.37,10.623,10.623,0,0,1-1.989,1.934q-1.193.9-2.29,1.786t-2.471,1.81a8.976,8.976,0,0,1-3.252,1.537q-1.72.4-3.688,1.032a3.981,3.981,0,0,1-3.9-1.367,13.736,13.736,0,0,1-1.854-2.1q-0.8-1.114-1.508-2.327l-1.939-3.484q-0.74-1.4-1.475-2.8a8.9,8.9,0,0,1-.951-3.052,65.918,65.918,0,0,0-1.633-8.376,5.637,5.637,0,0,1-.315-1.733c-0.01-.558.007-1.15,0.052-1.78l-0.174-4.27a38.016,38.016,0,0,0-.315-5.372,19.465,19.465,0,0,1,.052-5.42,9.641,9.641,0,0,0,.177-2.262,17.6,17.6,0,0,1,.017-2.055q0.13-1.881.287-3.583a6.446,6.446,0,0,1,1.436-3.357,2.771,2.771,0,0,0,.175-3.009,4.578,4.578,0,0,1,.65-5.123,2.3,2.3,0,0,0,.522-1.746,5.074,5.074,0,0,1,.189-2.171,22.724,22.724,0,0,0,.556-2.217,7.613,7.613,0,0,0,.249-0.966,4.133,4.133,0,0,0,.019-1.309,2.828,2.828,0,0,1,.659-2.137,5.738,5.738,0,0,0,.834-5.146,3.219,3.219,0,0,1,.862-3.47,7.743,7.743,0,0,0,1.746-3.117,18.643,18.643,0,0,0,.575-3.526,5.734,5.734,0,0,1,.612-2.5c0.5-.933.919-1.8,1.255-2.587a5.056,5.056,0,0,0,.313-2.653,1.672,1.672,0,0,1,.73-1.587q0.87-.483.659-2.137a1.947,1.947,0,0,1,.523-1.747,7.356,7.356,0,0,0,3.107-4.878,11.152,11.152,0,0,1,1.436-3.356q0.458-.8.833-1.507a10.6,10.6,0,0,0,.65-1.483,5.674,5.674,0,0,1,.285-0.69,1.147,1.147,0,0,0,.1-0.666,1.133,1.133,0,0,1,.57-1.38,1.736,1.736,0,0,0,.984-1.059,3.36,3.36,0,0,1,.913-1.61,6.481,6.481,0,0,0,1.121-1.45,11.805,11.805,0,0,1,.9-1.7,5.564,5.564,0,0,0,.718-1.678,5.166,5.166,0,0,1,2.627-4.256l0.3-.6,0.023,0.183-0.32.415a1.178,1.178,0,0,0,1.158-.429,6.78,6.78,0,0,1,.9-0.955,25.041,25.041,0,0,0,2.368-2.637l2.321-3a15.321,15.321,0,0,0,1.417-2.048q-0.944-.063-0.3-0.9a25.374,25.374,0,0,1,4.543-4.595,12.049,12.049,0,0,1,5.95-2.348c0.244-.031.376,0.016,0.391,0.136s0.144,0.169.391,0.137l0.023,0.184-0.183.023a2.9,2.9,0,0,1-.951.589,1.625,1.625,0,0,0-.768.564,12.346,12.346,0,0,1,1.481-.1q0.744,0,1.687.064a4.707,4.707,0,0,1,4.947,3.659,8.749,8.749,0,0,1,.4,1.629q0.094,0.736.211,1.653a26.267,26.267,0,0,1-.207,8.052,49.322,49.322,0,0,1-2.128,7.925q-0.68,2.143-1.391,4a38.234,38.234,0,0,1-1.628,3.662q-0.815,1.041.165,1.285a1.05,1.05,0,0,1,.283.711,0.779,0.779,0,0,1-.388.7,0.782,0.782,0,0,0-.385.7L379,255.774l0.746-.1A2.626,2.626,0,0,0,381.9,254a12.94,12.94,0,0,1,1.642-2.73,4.882,4.882,0,0,0,.9-1.8,33.909,33.909,0,0,1,1.647-5.624,24.758,24.758,0,0,0,1.463-5.6,26.931,26.931,0,0,1,.556-3.057,8.763,8.763,0,0,0,.16-3.194c-0.11-.855-0.187-1.685-0.226-2.49a11.623,11.623,0,0,0-.409-2.468,22.316,22.316,0,0,0-5.841-10.637h0Zm25.942,112.21c-0.216.278-.391,0.362-0.528,0.254q-0.393-.134-0.07-0.551a8.547,8.547,0,0,0,1.221-2.116,8.615,8.615,0,0,1,1.222-2.117,8.713,8.713,0,0,1-1.845,4.53h0Zm1.048-10.027c0.06-.007.1,0.052,0.115,0.172l0.024,0.184c-0.124.016-.18,0.055-0.172,0.115s-0.052.1-.172,0.115a0.539,0.539,0,0,0,.137-0.39C408.7,318.665,408.721,318.6,408.784,318.59Zm5.977-12.337a2.817,2.817,0,0,1-.546,1.563,4.979,4.979,0,0,1-.754,1.4,2.719,2.719,0,0,1,.754-1.4Zm2.041-4.461a1.673,1.673,0,0,1,.972-1.151c0.228-.152.195,0.068-0.1,0.666a11.846,11.846,0,0,1-1.246,1.933,5.054,5.054,0,0,1-1.483,2.989,4.3,4.3,0,0,1,1.483-2.989A8.1,8.1,0,0,0,416.8,301.792Zm8.782-7.191a8,8,0,0,0-1.234,2.025,7.177,7.177,0,0,0,1.234-2.025h0Zm-4.406.564c0.136,0.108.144,0.169,0.023,0.184a0.606,0.606,0,0,0-.492.53,2.475,2.475,0,0,1-.445.9,2.792,2.792,0,0,1,.73-1.587Zm-13.628-4.413-0.23-.344a1.247,1.247,0,0,1,.41-1.172l0.023,0.183c0.016,0.124.052,0.18,0.115,0.172s0.1,0.052.116,0.172l0.023,0.184a0.38,0.38,0,0,1-.056.287,0.377,0.377,0,0,0-.057.287h0a0.541,0.541,0,0,0-.344.231h0ZM425.916,287a6.071,6.071,0,0,1,1.66-1.612,2.029,2.029,0,0,0,.871-0.485c0.367-.047.582,0.176,0.645,0.664a1.742,1.742,0,0,1-.457.805,7.2,7.2,0,0,1-1.66,1.613,7.254,7.254,0,0,0-1.659,1.612,0.753,0.753,0,0,1-.527.254l-0.391-.136a1.065,1.065,0,0,1,.09-0.758h0Q425.286,287.921,425.916,287Zm9.149-85.908a34.542,34.542,0,0,1-.845,5.055q-1.451,6.16-2.717,12.293t-2.9,12.317q-1,3.864-2.124,7.458t-2.147,7.274q-1.8,6.389-4.186,12.481t-4.576,12.345q-0.957,2.738-1.855,5.183t-1.672,5.161c-0.365,1.044-.7,2.049-1.012,3.022a8.783,8.783,0,0,1-1.427,2.7l-0.64.828a27.081,27.081,0,0,1-.444-6.382,42.185,42.185,0,0,1,.727-5.973l0.363-1.539c0.134-.886.24-1.772,0.313-2.653s0.177-1.764.314-2.653q0.177-1.515.289-2.837c0.074-.879.177-1.764,0.314-2.653l0.782-7.006a7.07,7.07,0,0,1,.362-1.54q0.273-.779.546-1.563,0.775-1.22.132-1.883a2.336,2.336,0,0,1,0-1.493c0.134-.886.239-1.772,0.313-2.653s0.169-1.824.29-2.837a5.957,5.957,0,0,1,1.276-3.15,5.013,5.013,0,0,0,.814-3.837,11.381,11.381,0,0,1,.048-3.272q0.256-1.617.438-3.136a2.219,2.219,0,0,1,.581-1.287,3.657,3.657,0,0,0,.765-1.312,1.9,1.9,0,0,0,.008-1.4,1.867,1.867,0,0,1,.007-1.4l1.111-4.435a2.721,2.721,0,0,1,.753-1.4,2.8,2.8,0,0,0,.777-1.22,1.568,1.568,0,0,0,.019-1.309,2.073,2.073,0,0,1,0-1.492,4.941,4.941,0,0,1,.753-1.4,3.364,3.364,0,0,0,.8-2.528,4.9,4.9,0,0,1,.428-2.482l4.511-11.4a12.992,12.992,0,0,1,1.358-2.507,10.979,10.979,0,0,0,1.335-2.69,0.992,0.992,0,0,1,.308-0.506,2.653,2.653,0,0,0,.492-0.53q1.118-1.448,1.867-1.452a8.112,8.112,0,0,1,2.516.7,1.915,1.915,0,0,1,1.336,1.695c0.079,0.614.165,1.286,0.259,2.02a5.465,5.465,0,0,1-.108,2.067Q435.3,198.546,435.065,201.091Zm-3.338-14.41c0.12-.015.2,0.1,0.23,0.344l0.024,0.183-0.664.645a1.679,1.679,0,0,1-1.123.7,3.108,3.108,0,0,0-1.329.544,4.979,4.979,0,0,1,1.784-2.095,1.937,1.937,0,0,1,1.078-.325h0Zm3.422,0.495a4.166,4.166,0,0,0-4.091-1.343,6.453,6.453,0,0,0-3.987,2.378,44.042,44.042,0,0,0-3.827,5.809q-1.587,2.912-3.047,6.083a43.218,43.218,0,0,0-2.914,7.839,56.512,56.512,0,0,1-2.164,5.69,33.126,33.126,0,0,0-1.956,5.85l-2.609,10.226q-1.024,3.678-1.791,7.135t-1.449,6.905a44.639,44.639,0,0,0-.833,5.146q-0.245,2.458-.674,4.939-0.842,4.963-1.706,9.737t-1.523,9.714q-0.4,2.667-.612,5.305a41.666,41.666,0,0,1-.793,5.327q-0.865,4.779-1.469,9.427t-0.9,9.541l-0.623,8.1-0.17,7.3a12.261,12.261,0,0,0,.012,2.985q0.189,1.471.376,2.938a11.924,11.924,0,0,0,.617,2.627,4.835,4.835,0,0,0,1.671,2.119,5.368,5.368,0,0,0,.449.6,6.776,6.776,0,0,1,.45.6,1.658,1.658,0,0,0,1.334.949,8.108,8.108,0,0,0,1.768-.04,2,2,0,0,0,.63-0.174,0.673,0.673,0,0,1,.678.193,0.8,0.8,0,0,0,1.125.042,5.95,5.95,0,0,0,.824-0.852,13.343,13.343,0,0,0,1.827-3.22l4.266-8.945,8.987-18.7a3.512,3.512,0,0,0,.525-1,10.065,10.065,0,0,1,.5-1.185,1.441,1.441,0,0,1-.527.255,0.164,0.164,0,0,0-.161.207,0.377,0.377,0,0,0-.263.127,0.374,0.374,0,0,1-.264.127l-0.047-.367a4.345,4.345,0,0,1,.73-1.587l0.96-1.243a1.559,1.559,0,0,1,1.1-.141q0.8-1.034,1.612-1.98a19.074,19.074,0,0,0,1.589-2.163l-1.374.923a1.169,1.169,0,0,0-.469.713c-0.084.323-.324,0.386-0.722,0.186a4.941,4.941,0,0,1,.753-1.4l2.1-2.509a0.464,0.464,0,0,1,.735-0.094,0.608,0.608,0,0,1-.09.758l-0.136.39a1.628,1.628,0,0,1,1.153,1.719,3.537,3.537,0,0,0,.084,1.389,8.638,8.638,0,0,1,.245,1.182,28.187,28.187,0,0,1,.221,4.638q-0.088,2.25-.147,4.685a66.491,66.491,0,0,0,.358,7.886q0.411,3.963.931,8l0.071,0.551a20.45,20.45,0,0,0,2.687,7.868q0.739,1.4,1.339,2.441a8.657,8.657,0,0,0,1.659,2.028,7.259,7.259,0,0,0,3.61,1.964,2.694,2.694,0,0,0,2.683-.9,0.854,0.854,0,0,1-.668-0.848,1.94,1.94,0,0,0-.325-1.078,1.68,1.68,0,0,1-1.266-1.144,1.7,1.7,0,0,0-1.266-1.145l-0.875-1.007a4.488,4.488,0,0,1-.648-1.411,13.262,13.262,0,0,1-.3-1.64,9.524,9.524,0,0,1-.085-1.389,1.683,1.683,0,0,0-.428-1.159,5.105,5.105,0,0,1-.845-2.225q-0.151-1.191-.317-2.479-0.235-1.833-.447-3.489a12.266,12.266,0,0,1,.1-3.559,4.637,4.637,0,0,0-.028-1.676q-0.141-1.1-.283-2.2a17.041,17.041,0,0,1-.122-2.411c0.027-.75.021-1.525-0.018-2.33s-0.116-1.633-.226-2.491c-0.141-1.1-.286-2.232-0.435-3.4a15.6,15.6,0,0,1-.068-3.444,15.286,15.286,0,0,0-.424-3.306,9.185,9.185,0,0,0-4.584-5.2,2.827,2.827,0,0,0-3.695.287q-1.834,1.731-3.479,3.432a14.267,14.267,0,0,0-2.674,3.889,13.4,13.4,0,0,1-1.394,2.231l-1.6,2.072a11.378,11.378,0,0,0-1.53,2.622q-0.276.783-.626,1.667a7.174,7.174,0,0,1-.993,1.714,17.416,17.416,0,0,0-1.931,3.14q-0.81,1.692-1.723,3.3-0.732,1.59-1.368,3.162a12.812,12.812,0,0,1-1.758,3.025,1.03,1.03,0,0,1-.5.437,0.536,0.536,0,0,0-.343.231,0.231,0.231,0,0,1-.368.047,1.725,1.725,0,0,1-.644-0.664l-0.047-.367c0.042-.627.095-1.194,0.155-1.7a1.548,1.548,0,0,0-.739-1.4c-0.414-.321-0.317-0.52.3-0.6a0.6,0.6,0,0,0,.572-0.634,5.871,5.871,0,0,0-.026-0.929,5.133,5.133,0,0,1-.038-1.022,4.246,4.246,0,0,0-.014-0.838,0.854,0.854,0,0,1-.668-0.848,4.511,4.511,0,0,1,.862-3.47q1.92-2.486.584-4.181a7.535,7.535,0,0,1-.532-1.238c-0.094-.735.167-1.016,0.789-0.848a7.051,7.051,0,0,0,1.281.209,4.4,4.4,0,0,0,1.136-.238,3.631,3.631,0,0,0,.866-0.951,1.034,1.034,0,0,0,.282-0.6,4.8,4.8,0,0,1,1.022-3.677,11.876,11.876,0,0,0,1.94-3.8l1.365-3.908a10.352,10.352,0,0,0,.387-1.356,4.5,4.5,0,0,1,.409-1.172q0.753-1.4,1.5-2.9a5.405,5.405,0,0,0,.53-3.148c-0.016-.12,0-0.187.068-0.195s0.084-.072.068-0.195a9.7,9.7,0,0,1,1.576-6.641,27.816,27.816,0,0,0,3.09-6.462q2.616-7.237,4.982-15.01l2.613-8.733q0.612-2.5,1.156-4.815t1.156-4.814a14.986,14.986,0,0,1,.681-2.7,13.6,13.6,0,0,0,.657-2.884,30.338,30.338,0,0,1,.906-3.849,9.355,9.355,0,0,0,.333-3.962,1.626,1.626,0,0,1,.089-0.758c0.089-.259.181-0.519,0.273-0.781l1.272-4.643q0.378-2.847.878-5.525a30.962,30.962,0,0,0,.511-5.478,19.606,19.606,0,0,0-.682-5.325h0a10.7,10.7,0,0,0-2.678-4.883h0Zm69,100.909q-1.468.936-2.841,1.857a23.664,23.664,0,0,1-4.941,2.219,53.108,53.108,0,0,0-4.988,1.852,4.176,4.176,0,0,1-2.283.386,11.035,11.035,0,0,0-2.513.042,0.63,0.63,0,0,1,.388-0.61,1.476,1.476,0,0,0,.619-0.266,11.414,11.414,0,0,1,4.529-1.793,18.912,18.912,0,0,0,4.759-1.45q2.451-1.245,4.893-2.586t4.847-2.954a2.885,2.885,0,0,1,1.043-.6,1.641,1.641,0,0,0,.859-0.577,5.291,5.291,0,0,1-1.554,2.439A29,29,0,0,1,504.145,288.085Zm4.658-8.063a2.292,2.292,0,0,0-.433.989,5.548,5.548,0,0,1-3.088,3.568q-2.271,1.227-4.355,2.425t-4.378,2.24q-1.952.81-3.738,1.412t-3.761,1.229a12.642,12.642,0,0,1-7.781.436,10.788,10.788,0,0,1-2.69-1.335,4.921,4.921,0,0,1-1.73-2.578,10.1,10.1,0,0,0-3.483-5.34q-1.635-1.093-2.594.146a45.619,45.619,0,0,0-3.884,6.1q-0.756,1.4-1.518,2.714a23.941,23.941,0,0,1-1.725,2.554,5.97,5.97,0,0,0-.617,1.012,1.784,1.784,0,0,1-.824.852q-1.055.512-1.172-.41a4.322,4.322,0,0,0-.2-0.814,1.246,1.246,0,0,1-.014-0.838,14.654,14.654,0,0,0,.262-4.513,22.531,22.531,0,0,1,.054-4.673,3.858,3.858,0,0,0-1.6-3.716q-1.242-.96-1.422.556l-0.339,1.723q-1.155,5.564-1.848,11.062T454.06,305.7q-0.569,2.871-.959,5.628a29.248,29.248,0,0,1-1.349,5.492q-1.662,4.509.07,7.83a2.664,2.664,0,0,0,1.2,2.086q1.011,0.62,2.208,1.211,0.987,0.433,1.949-.81a1.632,1.632,0,0,0,.353-0.885,3.288,3.288,0,0,1,.169-0.861q0.588-2.688,1.281-5.3a21.667,21.667,0,0,0,.73-5.226,4.469,4.469,0,0,1,1.436-3.357,7.538,7.538,0,0,0,2.307-3.842,21.75,21.75,0,0,1,2.119-5.311l3.837-6.464,2.17-3.451a4.533,4.533,0,0,1,1.328-1.29c0.352-.167.965,0.25,1.84,1.258l0.876,1.007,1.567,2.039a6.036,6.036,0,0,0,3.107,2.4,14.235,14.235,0,0,0,4.02.792,14.806,14.806,0,0,0,3.707-.195,9.234,9.234,0,0,0,3.542-1.48,6.549,6.549,0,0,1-1.113.049,6.873,6.873,0,0,0-1.113.049l-0.184.024c-0.031-.244.013-0.375,0.137-0.391a1.136,1.136,0,0,0,.619-0.266,6.331,6.331,0,0,1,.6-0.45,28.626,28.626,0,0,1,3.623-1.583q1.695-.589,3.669-1.217a24.468,24.468,0,0,0,4.917-2.4,48.173,48.173,0,0,0,4.616-3.3q0.846-.669,1.615-1.234a5.4,5.4,0,0,0,1.384-1.577,4.286,4.286,0,0,0,.692-2.608,2.866,2.866,0,0,0-1.12-2.19,0.7,0.7,0,0,0-1.1.141h0Zm11.323,31.586-0.184.023a1.029,1.029,0,0,1-.5.438Zm-8.226,1.333a8.178,8.178,0,0,0-1.3.073,1.029,1.029,0,0,1-.6-0.3c-0.123.015-.023-0.184,0.3-0.6a9.359,9.359,0,0,1,3.3-2.679q2.013-1.011,3.917-2.2a4.985,4.985,0,0,1-1.548,3.21,20.469,20.469,0,0,1-2.816,2.053A2.125,2.125,0,0,1,511.9,312.941Zm5.8-5.689a0.327,0.327,0,0,1,.32-0.414l0.16-.207c0.244-.031.26,0.092,0.047,0.367a0.753,0.753,0,0,1-.527.254h0Zm3.982-3.869a1.284,1.284,0,0,1-.96,1.242l-0.367.047-0.024-.183a2.164,2.164,0,0,1,.961-1.243l0.367-.047ZM506.2,285.955a3.407,3.407,0,0,1,1.417-2.048,2.305,2.305,0,0,1-1.417,2.048h0Zm10.846-4.189,0.183-.024a0.531,0.531,0,0,0,.344-0.231,2.157,2.157,0,0,1,.5-0.437Zm1.031-.692a1.255,1.255,0,0,1,.87-0.485l-1.054.508h0Zm-4.388-.745-0.32.414-0.16.207a0.23,0.23,0,0,1-.047-0.367,0.758,0.758,0,0,1,.527-0.254h0Zm9.821,13.3a21.787,21.787,0,0,1-4.2,8.75,31.728,31.728,0,0,1-6.662,6.266,11.641,11.641,0,0,1-5.846,2.429,2.222,2.222,0,0,1-2.439-1.554,10.887,10.887,0,0,1-.94-7.346q0.2-1.329,1.214-.715L506,301.845c0.781,0.273,1.293-.1,1.535-1.13l0.428-2.481a22.359,22.359,0,0,1,.553-2.964,9.187,9.187,0,0,1,1.152-2.667q1.736-2.462,3.359-5.1a56.614,56.614,0,0,1,3.382-4.913l0.641-.828q-0.528.255-1.055,0.508a10.292,10.292,0,0,0-1.214.715,19.429,19.429,0,0,1,2.252-2.808,4.412,4.412,0,0,1,2.625-1.362l0.551-.071a1.108,1.108,0,0,1,.621.48l0.8,0.457a1.913,1.913,0,0,0,1.125.043q1.467-.189,2.118,1.968a6.818,6.818,0,0,1,.282,2.2Q524.509,289.023,523.514,293.629Zm-4.28-18.116a0.163,0.163,0,0,0,.207.16l0.208,0.16,0.07,0.551a3.266,3.266,0,0,1-1.351,1.107,12.612,12.612,0,0,0-2.349,1.327,12.38,12.38,0,0,1-2.349,1.327,8.255,8.255,0,0,1,4.119-4.26,3.882,3.882,0,0,1,1.445-.372h0Zm-2.137-.659a19.066,19.066,0,0,0-5.861,5.23,11.114,11.114,0,0,1-1.224,1.37,3.992,3.992,0,0,1-1.478.842,7.225,7.225,0,0,0-2.681,1.65,15.666,15.666,0,0,0-2.013,2.5,25.958,25.958,0,0,0-4.647,11.794,27.492,27.492,0,0,0,.129,8.289,17.345,17.345,0,0,0,3.386,7.5q3.8,4.929,9.537,3.072a15.442,15.442,0,0,0,6.553-4.2l-2.613,1.454-2.8,1.478q-1.581.764-1.652,0.212a0.572,0.572,0,0,1,.376-0.7,3.261,3.261,0,0,0,.791-0.381q2.22-1.587,4.261-3.159t4.053-3.318a5.167,5.167,0,0,1,1.7-1.337l0.367-.047,0.023,0.183,0.024,0.184-0.777,1.219a14.051,14.051,0,0,1-1.3,1.474,6.456,6.456,0,0,0-1.12,1.45,18.26,18.26,0,0,0,3.123-3.293,24.784,24.784,0,0,0,2.159-3.543l1.026-2.185a16.977,16.977,0,0,1,1.231-2.77,10.285,10.285,0,0,0,1.048-2.747c0.166-.643.323-1.348,0.476-2.114a10.156,10.156,0,0,1,.659-2.138,4.932,4.932,0,0,0,.268-2.274,13.292,13.292,0,0,1-.12-1.664,13.752,13.752,0,0,0-.119-1.665A22.236,22.236,0,0,0,528,280.55a14.366,14.366,0,0,0-4.309-5.234q-3.315-2.559-6.591-.462h0Zm72.161,24.353a4.189,4.189,0,0,0,2.038-1.568,6.972,6.972,0,0,0-2.038,1.568h0Zm-44.127-.694a1.107,1.107,0,0,1-.64.828l-0.207-.16a1.064,1.064,0,0,1,.273-0.781l0.551-.071Zm45.351-4.316q-2.936,1.872-5.739,4a37.094,37.094,0,0,1-5.785,3.634,7.838,7.838,0,0,1-1.973.626,9.945,9.945,0,0,1-2.25-.085,2.032,2.032,0,0,1,1.535-1.13q2.979-1.5,5.741-3.255t5.51-3.6a23.742,23.742,0,0,0,1.958-1.464q0.925-.771,1.775-1.441a1.075,1.075,0,0,1,1.262-.348,1,1,0,0,1-.2,1.332Zm-41.238,5.282a9.583,9.583,0,0,1-3.1,3.01l0.715-1.771a8.372,8.372,0,0,1,1.917-2.672,20.674,20.674,0,0,0,2.314-2.536c0.213-.275.336-0.291,0.367-0.047s0.108,0.359.231,0.343,0.128,0.048.023,0.184Q550.421,297.652,549.244,299.479Zm-0.164-5.765c-0.79.848-1.631,1.767-2.532,2.751l-0.07-.551a57.368,57.368,0,0,1,5.325-7.961,0.464,0.464,0,0,1,.734-0.094c0.275,0.215.231,0.344-.137,0.391a0.925,0.925,0,0,0-.906,1.049,3.168,3.168,0,0,1-.285,1.53A16.307,16.307,0,0,1,549.08,293.714Zm5.893-8.687c-0.008-.06.049-0.1,0.172-0.115,0.016,0.123-.008.187-0.068,0.2s-0.084.075-.069,0.2l-0.183.023c-0.123.016-.187,0-0.2-0.068s0.048-.1.171-0.116S554.981,285.09,554.973,285.027Zm8.339-1.908a33.834,33.834,0,0,1-4.6,4.882,34.044,34.044,0,0,0-4.6,4.882,1.044,1.044,0,0,1-.5.438l-0.367.047L553.2,293a1.566,1.566,0,0,1,.8-1.035,21.412,21.412,0,0,0,4.762-4.343q2.01-2.5,4.093-5.19a0.165,0.165,0,0,1,.16-0.208,1.411,1.411,0,0,0,.527-0.254l0.184-.023a0.523,0.523,0,0,0,.231.343Zm-5.7-.764a5.576,5.576,0,0,1,2.2-1.774,4.452,4.452,0,0,1-2.2,1.774h0Zm6.324-3.8a0.472,0.472,0,0,1-.435.242,0.761,0.761,0,0,0-.528.255,0.751,0.751,0,0,1-.527.254l-0.551.07-1.765.786a9.219,9.219,0,0,1,3.319-3.224,0.741,0.741,0,0,1,.942.066c0.322,0.582.309,0.957-.043,1.125A1.006,1.006,0,0,0,563.941,278.559Zm31.2,8.308q-0.166-1.3-.965-0.253l-0.687.464a16.419,16.419,0,0,1-2.046,2.237,16.64,16.64,0,0,0-2.048,2.222,5.366,5.366,0,0,1-1.763,1.532q-0.964.5-2.017,1l-3.14,1.709q-1.558.946-2.945,1.777t-2.921,1.96c-0.231.155-.459,0.31-0.687,0.462a1.635,1.635,0,0,1-.711.277,9.518,9.518,0,0,1-3.822.023q-0.885-.349-1.238-3.107a1.276,1.276,0,0,1,.021-0.563,1.285,1.285,0,0,0,.021-0.563l-0.211-1.652a10.3,10.3,0,0,1-.019-2.334q0.121-1.231.3-2.765l0.571-5.734a5.964,5.964,0,0,0-1.388-5.01,40.137,40.137,0,0,0-4-3.544q-0.831-.642-2.411.119a9.364,9.364,0,0,0-2.06,1.395q-1.007.887-1.829,1.745-1.168,1.1-2.252,2.085t-2.253,2.079q-1.832,1.749-3.634,3.677a51.619,51.619,0,0,0-3.4,4.023l-2.692,3.742a1.335,1.335,0,0,1-1.215.716q-1.125-.04-0.923-1.375a12.621,12.621,0,0,0,.076-1.6,4.58,4.58,0,0,1,.259-1.619,9.7,9.7,0,0,0,.391-3.5,6.655,6.655,0,0,1,.6-3.343,1.058,1.058,0,0,0,0-.746,2.926,2.926,0,0,1-.186-0.723,3.035,3.035,0,0,0-1.337-1.695,0.928,0.928,0,0,0-1.469.188,2.738,2.738,0,0,0-.569,1.379,15,15,0,0,1-.716,2.425,12.42,12.42,0,0,0-.692,2.608q-0.793,4.022-1.606,7.858t-1.606,7.858a11.382,11.382,0,0,0-.356,3.779,11.251,11.251,0,0,0,1.8,3.129l0.023,0.183q1.472,1.308,2.184,1.027,1.42-.553,1.036.8c-0.092.262-.072,0.414,0.059,0.459a0.3,0.3,0,0,0,.355-0.139,0.583,0.583,0,0,1,.516-0.346,0.573,0.573,0,0,0,.515-0.346l3.818-5.155q1.76-2.277,3.166-4.418t2.983-4.395l7.25-8.955A26.229,26.229,0,0,1,561.255,286q1.008-.873,2.015-1.752,0.846-.668.965,0.25a9.648,9.648,0,0,1,.009,2.985,10.963,10.963,0,0,0-.492,4.169,30.937,30.937,0,0,1,.058,4.1,3.556,3.556,0,0,0,.085,1.389,10.03,10.03,0,0,1,.268,1.365,9.584,9.584,0,0,0,1.089,3.407,18.546,18.546,0,0,0,1.961,2.922,9.047,9.047,0,0,0,4.429,3.259,7.1,7.1,0,0,0,5.771-.833l4.538-2.447a19.065,19.065,0,0,0,3.253-2.284,33.109,33.109,0,0,1,3.23-2.466l0.824-.852-3.964,2.56q-1.377.925-3.025,1.881t-3.575,1.951a11.028,11.028,0,0,1-1.789.6l-0.551.07c-0.246.032-.287-0.056-0.127-0.264a0.758,0.758,0,0,1,.424-0.334,2.715,2.715,0,0,0,1.375-.922A26.324,26.324,0,0,1,582.058,302q2.175-1.211,4.446-2.436a43.6,43.6,0,0,0,4.239-2.6,15.433,15.433,0,0,0,3.411-3.236l0.664-.645,0.367-.047a2.544,2.544,0,0,1-.49,1.276,6.552,6.552,0,0,0-.7,1.116,14.634,14.634,0,0,0,3.569-4.19l-0.235-1.837c-0.11-.855-0.787-1.267-2.024-1.234ZM615.4,299.4l-0.184.023a1.032,1.032,0,0,1-.5.438Zm-8.226,1.333a8.184,8.184,0,0,0-1.3.073,1.027,1.027,0,0,1-.6-0.3c-0.123.015-.024-0.184,0.3-0.6a9.355,9.355,0,0,1,3.3-2.679q2.014-1.011,3.917-2.2a4.985,4.985,0,0,1-1.548,3.21,20.348,20.348,0,0,1-2.816,2.053A2.125,2.125,0,0,1,607.178,300.737Zm5.8-5.689a0.327,0.327,0,0,1,.32-0.414l0.16-.207c0.244-.031.26,0.092,0.047,0.367a0.751,0.751,0,0,1-.527.254h0Zm3.983-3.869a1.286,1.286,0,0,1-.96,1.242l-0.368.047-0.023-.183a2.164,2.164,0,0,1,.96-1.243l0.367-.047Zm-15.481-17.428A3.411,3.411,0,0,1,602.9,271.7a2.3,2.3,0,0,1-1.417,2.048h0Zm10.846-4.189,0.184-.024a0.529,0.529,0,0,0,.343-0.231,2.18,2.18,0,0,1,.5-0.437Zm1.031-.692a1.26,1.26,0,0,1,.871-0.485l-1.055.508h0Zm-4.387-.745-0.32.414-0.16.208a0.231,0.231,0,0,1-.047-0.368,0.756,0.756,0,0,1,.527-0.254h0Zm9.821,13.3a21.776,21.776,0,0,1-4.2,8.75,31.721,31.721,0,0,1-6.661,6.266,11.648,11.648,0,0,1-5.847,2.429,2.221,2.221,0,0,1-2.438-1.554,10.886,10.886,0,0,1-.941-7.345q0.2-1.331,1.215-.716l1.355,0.386q1.173,0.411,1.535-1.129l0.429-2.482a22.041,22.041,0,0,1,.553-2.964,9.158,9.158,0,0,1,1.151-2.667q1.735-2.462,3.359-5.1a56.62,56.62,0,0,1,3.383-4.913l0.64-.828q-0.526.255-1.054,0.508a10.216,10.216,0,0,0-1.215.715,19.432,19.432,0,0,1,2.253-2.808,4.409,4.409,0,0,1,2.624-1.362l0.551-.071a1.105,1.105,0,0,1,.621.48l0.805,0.457a1.913,1.913,0,0,0,1.125.043q1.467-.189,2.118,1.968a6.819,6.819,0,0,1,.283,2.2Q619.787,276.819,618.793,281.425Zm-4.28-18.116a0.163,0.163,0,0,0,.207.16l0.207,0.16L615,264.18a3.262,3.262,0,0,1-1.352,1.107,12.612,12.612,0,0,0-2.349,1.327,12.349,12.349,0,0,1-2.349,1.327,8.253,8.253,0,0,1,4.12-4.26,3.87,3.87,0,0,1,1.445-.372h0Zm-2.137-.659a19.066,19.066,0,0,0-5.861,5.23,11.279,11.279,0,0,1-1.224,1.37,4,4,0,0,1-1.479.842,7.229,7.229,0,0,0-2.68,1.65,15.666,15.666,0,0,0-2.013,2.5,25.936,25.936,0,0,0-4.647,11.794,27.427,27.427,0,0,0,.129,8.289,17.333,17.333,0,0,0,3.386,7.5q3.8,4.929,9.537,3.072a15.448,15.448,0,0,0,6.553-4.2l-2.613,1.454-2.8,1.478q-1.582.764-1.653,0.212a0.572,0.572,0,0,1,.377-0.7,3.279,3.279,0,0,0,.791-0.381q2.219-1.587,4.26-3.159t4.053-3.318a5.177,5.177,0,0,1,1.7-1.337l0.367-.047,0.024,0.183,0.023,0.184-0.776,1.219a14.166,14.166,0,0,1-1.3,1.474,6.461,6.461,0,0,0-1.121,1.45,18.267,18.267,0,0,0,3.124-3.293,24.776,24.776,0,0,0,2.158-3.543l1.027-2.185a16.808,16.808,0,0,1,1.231-2.77,10.284,10.284,0,0,0,1.047-2.747c0.166-.643.323-1.348,0.476-2.114a10.274,10.274,0,0,1,.659-2.138,4.933,4.933,0,0,0,.269-2.274,13.292,13.292,0,0,1-.12-1.664,13.567,13.567,0,0,0-.12-1.665,22.207,22.207,0,0,0-1.88-6.665,14.366,14.366,0,0,0-4.309-5.234q-3.315-2.559-6.59-.462h0Zm30.009-25.028c0.066-.443.138-0.858,0.214-1.241l1.649-16.262a97.157,97.157,0,0,1,1.792-10.775q1.187-5.283,2.343-10.846a25.541,25.541,0,0,1,.953-3.481q0.615-1.76,1.138-3.506a63.636,63.636,0,0,1,5.216-13.173,15.127,15.127,0,0,1,2.7-3.7q0.823-.849,1.476-1.589t1.292-1.565a3.785,3.785,0,0,1,.9,2.684l-0.561,4.364a57.678,57.678,0,0,1-1.38,6.71q-0.885,3.288-1.77,6.572l-4.7,18.706-4.181,13.974q-0.8,2.529-1.684,5.068a43.267,43.267,0,0,1-2.074,4.932q-0.274.783-.557,1.471a5.692,5.692,0,0,1-.766,1.311l-0.64.829a2.286,2.286,0,0,1-.847.668A1.165,1.165,0,0,1,642.385,237.622ZM658.464,169.4l-0.047-.367a0.642,0.642,0,0,1,.48-0.621,3.1,3.1,0,0,1,.894-0.3c0.121-.015.207,0.161,0.255,0.528a1.567,1.567,0,0,1-.653.737,0.73,0.73,0,0,1-.929.025h0Zm-7.657,145.63a1.125,1.125,0,0,0-.212-1.653l-0.716-1.215a5.549,5.549,0,0,1-1.294-2.82,9.111,9.111,0,0,0-.708-2.616q-0.523-1.145-1.052-2.385l-0.579-1.606a11.039,11.039,0,0,1-.708-2.615,11.269,11.269,0,0,0-.708-2.616,17.059,17.059,0,0,1-1.087-6.3,45.339,45.339,0,0,0-.353-6.394,2.139,2.139,0,0,1,.179-1.516q0.962-1.242-.032-3.169a10.155,10.155,0,0,1-1.019-2.855,15.639,15.639,0,0,1-.285-2.95q-0.03-1.676-.148-3.341t-0.308-3.133a11.686,11.686,0,0,1,1.036-6.479c0.09-.259.178-0.551,0.262-0.873s0.161-.674.238-1.057a15.77,15.77,0,0,0,.021-4.2,4.91,4.91,0,0,1,1.01-3.768,1.081,1.081,0,0,0,.09-0.759,2.3,2.3,0,0,1,1.346-2.6,1.442,1.442,0,0,0,.73-1.587,4.755,4.755,0,0,1,.257-2.366,13.444,13.444,0,0,1,1.038-2.093l1.026-2.184a40.2,40.2,0,0,0,2.176-5.6q0.851-2.812,1.784-5.735,0.543-1.561.921-3.011a18.1,18.1,0,0,1,1.1-3.034l1.549-3.931a2.7,2.7,0,0,0,.339-1.723,6.2,6.2,0,0,1,.838-3.654,9.454,9.454,0,0,0,.819-2.345l0.269-2.274q0.293-2.09.7-4.009a20.133,20.133,0,0,1,1.274-3.9,8.665,8.665,0,0,0,.8-2.528,31.59,31.59,0,0,1,.878-5.525q0.678-2.7,1.269-5.389,0.726-3.076,1.175-6.123a39.807,39.807,0,0,0,.417-6.213,10.9,10.9,0,0,0-2.475-6.215l-0.876-1.008q-0.9-1.188-2.64-.222a13,13,0,0,0-3.6,2.514,26.263,26.263,0,0,0-4.138,5.57q-1.67,3.014-3.126,6.186t-2.644,6.311q-1.185,3.139-2.253,6.448-1.482,4.485-2.486,9t-1.889,9.294q-0.768,4.208-1.535,8.409t-1.145,8.546q-0.648,6.618-1.015,13.2t-0.465,13.125q-0.089,2.25-.274,4.421a20.733,20.733,0,0,1-.847,4.308,4.839,4.839,0,0,0,.818,4.934,3.82,3.82,0,0,1,1.158,3.212,23.514,23.514,0,0,0,.313,4.626q0.372,2.192.656,4.4L637.6,289.1a37.253,37.253,0,0,0,.864,4.555q0.558,2.169,1.047,4.532a41.806,41.806,0,0,0,1.277,4.876q0.762,2.329,1.645,4.829a10.608,10.608,0,0,0,1.951,3.576q1.324,1.6,2.638,3.115a5.659,5.659,0,0,0,1.634,1.1,1.859,1.859,0,0,0,2.156-.649h0Zm25.181-23.383-0.183.023a1.033,1.033,0,0,1-.5.438Zm-8.226,1.333a8.184,8.184,0,0,0-1.3.073,1.027,1.027,0,0,1-.6-0.3c-0.123.015-.024-0.184,0.3-0.6a9.355,9.355,0,0,1,3.295-2.679q2.015-1.011,3.918-2.2a4.99,4.99,0,0,1-1.548,3.21,20.382,20.382,0,0,1-2.816,2.052A2.129,2.129,0,0,1,667.762,292.977Zm5.8-5.689a0.327,0.327,0,0,1,.32-0.414l0.161-.207c0.243-.032.259,0.092,0.047,0.367a0.755,0.755,0,0,1-.528.254h0Zm3.983-3.87a1.286,1.286,0,0,1-.96,1.243l-0.368.047-0.023-.183a2.164,2.164,0,0,1,.96-1.243l0.368-.047ZM662.066,265.99a3.416,3.416,0,0,1,1.417-2.048,2.3,2.3,0,0,1-1.417,2.048h0Zm10.846-4.188,0.184-.024a0.529,0.529,0,0,0,.343-0.231,2.157,2.157,0,0,1,.5-0.437Zm1.031-.692a1.256,1.256,0,0,1,.871-0.485l-1.054.508h0Zm-4.387-.745-0.32.414-0.16.207a0.23,0.23,0,0,1-.047-0.367,0.756,0.756,0,0,1,.527-0.254h0Zm9.821,13.3a21.776,21.776,0,0,1-4.2,8.75,31.721,31.721,0,0,1-6.661,6.266,11.648,11.648,0,0,1-5.847,2.429,2.221,2.221,0,0,1-2.438-1.554,10.894,10.894,0,0,1-.941-7.346q0.2-1.329,1.215-.715l1.355,0.386c0.782,0.273,1.294-.1,1.535-1.13l0.429-2.481a22.041,22.041,0,0,1,.553-2.964,9.185,9.185,0,0,1,1.151-2.667q1.736-2.462,3.359-5.1a56.62,56.62,0,0,1,3.383-4.913l0.64-.828q-0.526.255-1.054,0.508a10.3,10.3,0,0,0-1.215.715,19.445,19.445,0,0,1,2.253-2.808,4.416,4.416,0,0,1,2.624-1.363l0.551-.07a1.1,1.1,0,0,1,.621.48l0.8,0.457a1.914,1.914,0,0,0,1.125.043q1.469-.189,2.118,1.968a6.819,6.819,0,0,1,.283,2.2Q680.371,269.059,679.377,273.665Zm-4.28-18.116a0.163,0.163,0,0,0,.207.16l0.207,0.16,0.071,0.551a3.266,3.266,0,0,1-1.351,1.107,12.58,12.58,0,0,0-2.349,1.327,12.443,12.443,0,0,1-2.35,1.327,8.253,8.253,0,0,1,4.12-4.26,3.876,3.876,0,0,1,1.445-.372h0Zm-2.137-.659a19.066,19.066,0,0,0-5.861,5.23,11.279,11.279,0,0,1-1.224,1.37,4,4,0,0,1-1.478.842,7.225,7.225,0,0,0-2.681,1.65,15.666,15.666,0,0,0-2.013,2.5,25.958,25.958,0,0,0-4.647,11.794,27.428,27.428,0,0,0,.129,8.289,17.345,17.345,0,0,0,3.386,7.5q3.8,4.929,9.537,3.072a15.448,15.448,0,0,0,6.553-4.2l-2.613,1.454-2.8,1.478q-1.582.764-1.653,0.212a0.572,0.572,0,0,1,.377-0.7,3.279,3.279,0,0,0,.791-0.381q2.22-1.587,4.26-3.159t4.054-3.318a5.176,5.176,0,0,1,1.694-1.337l0.368-.047,0.023,0.183,0.024,0.184-0.777,1.219a14.166,14.166,0,0,1-1.3,1.474,6.461,6.461,0,0,0-1.121,1.45,18.267,18.267,0,0,0,3.124-3.293,24.776,24.776,0,0,0,2.158-3.543l1.027-2.185a16.808,16.808,0,0,1,1.231-2.77,10.319,10.319,0,0,0,1.048-2.747q0.247-.964.475-2.114a10.274,10.274,0,0,1,.659-2.138,4.921,4.921,0,0,0,.269-2.274,13.294,13.294,0,0,1-.12-1.665,13.566,13.566,0,0,0-.12-1.664,22.207,22.207,0,0,0-1.88-6.665,14.348,14.348,0,0,0-4.309-5.234q-3.315-2.559-6.59-.462h0ZM716.15,377.4l-0.57,1.379a3.243,3.243,0,0,0-.73,1.587,0.669,0.669,0,0,1,.118.918,12.788,12.788,0,0,1-.692,2.609q-0.493,1.274-1.083,2.471-1.756,3.768-3.536,7.359a60.871,60.871,0,0,1-4.134,7.062c-0.52.813-1.062,1.658-1.633,2.542a17.483,17.483,0,0,1-1.841,2.382,19.843,19.843,0,0,0-1.464,1.681,2.519,2.519,0,0,1-1.742.97c-0.244.031-.375-0.016-0.391-0.137l-0.047-.367a10.406,10.406,0,0,1,1.257-1.841,72.032,72.032,0,0,0,6.17-9.376q2.644-4.818,5.158-9.993a126.733,126.733,0,0,0,5.193-13.357l0.476-2.113a5,5,0,0,1,2.17-3.451,15.758,15.758,0,0,1-.69,3.354q-0.535,1.653-.9,3.195ZM724.3,361.42a0.533,0.533,0,0,1-.23-0.344,6.1,6.1,0,0,1,1.182-3.884l0.183-.024,0.414,0.321a5.584,5.584,0,0,1-1.181,3.884,0.235,0.235,0,0,1-.368.047h0Zm-43.679,2.795,0.932-2.919q-0.087.754-.155,1.7a2.527,2.527,0,0,1-.386,1.356,0.533,0.533,0,0,1-.344.23Zm2.006-4.736a0.165,0.165,0,0,0,.207.16,0.164,0.164,0,0,1-.16.207,0.716,0.716,0,0,0-.447.151,0.381,0.381,0,0,1-.264.127l0.3-.6Zm39.825-6.595a68.658,68.658,0,0,0-2.184,10.172,3.216,3.216,0,0,1-.359.979,1.2,1.2,0,0,0-.193.772l-0.334.416c-0.016-.124-0.055-0.18-0.118-0.172s-0.1-.051-0.118-0.171a18.3,18.3,0,0,1-.113-3.159,8.292,8.292,0,0,1,.842-3.28,1.637,1.637,0,0,0,.361-0.98,1.609,1.609,0,0,1,.362-0.979,19.654,19.654,0,0,0,1.294-2.779c0.338-.915.641-1.826,0.916-2.731a36.909,36.909,0,0,1,1.731-5.447,10.9,10.9,0,0,0,.752-5.509,1.014,1.014,0,0,1,.3-0.6c0.121-.016.188,0,0.2,0.068s0.072,0.084.2,0.068a4.389,4.389,0,0,0-.288,1.53,4.5,4.5,0,0,1-.288,1.53Q723.934,347.842,722.448,352.884Zm3.54-16.131c-0.015-.123.006-0.187,0.069-0.195s0.083-.075.068-0.2l0.207,0.16c0.031,0.244-.016.376-0.136,0.391a0.165,0.165,0,0,1-.208-0.16h0Zm-30.922,4.054a4.332,4.332,0,0,1,.536-0.909,2.718,2.718,0,0,0-1.073,1.818A4.377,4.377,0,0,0,695.066,340.807Zm-2.843-2.529,0.183-.023,0.207,0.16-1.12,1.45a4.941,4.941,0,0,1-.753,1.4,3.663,3.663,0,0,1,.753-1.4,2.8,2.8,0,0,1,.73-1.587h0Zm5.093-1.025-0.023-.184-0.16.207Zm0.32-.415c-0.123.016-.18,0.052-0.172,0.116s-0.051.1-.171,0.115Zm29.12-4.29a11.547,11.547,0,0,1,.57-1.379c-0.061.5-.122,1.01-0.179,1.516a6.376,6.376,0,0,1-.523,1.747A4.1,4.1,0,0,1,726.756,332.548Zm-28.64,3.669a3.6,3.6,0,0,1,.754-1.4,1.014,1.014,0,0,1,.3-0.6l-0.48.621a3.684,3.684,0,0,1-.753,1.4Zm1.554-2.439a1.016,1.016,0,0,1,.3-0.6l-0.48.622Zm-4.844.061,0.207,0.16,0.047,0.367a0.6,0.6,0,0,1-.468.713,5.862,5.862,0,0,1-.906.21,6.775,6.775,0,0,0,.937-1.427Zm32.335-3.955a1.6,1.6,0,0,1,.41-1.173l0.136-.391c0.244-.031.391,0.137,0.438,0.5a3.082,3.082,0,0,1-.843,2.161h0Zm-29.329-.257c0.008,0.061.072,0.084,0.2,0.069a1.2,1.2,0,0,1-.937,1.426l-0.367.047-0.208-.16a1.261,1.261,0,0,1,1.121-1.45C697.757,329.544,697.824,329.564,697.832,329.627Zm6.066-2.176a1.011,1.011,0,0,0-.3.6,0.327,0.327,0,0,1,.32-0.415Zm0.8-1.036a1.014,1.014,0,0,0-.3.6,0.325,0.325,0,0,1,.32-0.414Zm1.624-1.888a3.226,3.226,0,0,0-1.624,1.888Zm-6.035.96c-0.015-.124.1-0.2,0.344-0.231l0.391,0.137-0.226,1.148a1.752,1.752,0,0,1-.777,1.22,0.537,0.537,0,0,1-.758-0.09c-0.294-.335-0.3-0.615-0.014-0.838a4.461,4.461,0,0,0,.744-0.748h0A1.052,1.052,0,0,0,700.287,325.487Zm6.035-.96,0.481-.621a1.057,1.057,0,0,1-.5.437Zm2.7-3.7a6.394,6.394,0,0,0-1.121,1.45,6.549,6.549,0,0,0,1.121-1.45h0Zm-4.386.719a1.323,1.323,0,0,1-1.188.928l-0.367.047-0.227-.315a5.031,5.031,0,0,1,2.332-2.194h0C705,320.489,704.812,321,704.634,321.541Zm5.666-2.376a1.014,1.014,0,0,0-.3.6Zm0,0c0.368-.047.535-0.194,0.5-0.438a1.058,1.058,0,0,1-.5.438h0Zm0.8-1.036a1.016,1.016,0,0,0-.3.6Zm0.8-1.036a1.019,1.019,0,0,0-.3.6Zm0.8-1.035a1.014,1.014,0,0,0-.3.6Zm0,0c0.368-.047.535-0.194,0.5-0.438a1.058,1.058,0,0,1-.5.438h0Zm0.8-1.036a1.011,1.011,0,0,0-.3.6Zm-4.067-1.159a0.46,0.46,0,0,1,.734-0.094c0.136,0.105.1,0.3-.113,0.574a23.454,23.454,0,0,0-1.725,2.554,6.88,6.88,0,0,1-2.14,2.234,2.274,2.274,0,0,0-.847.669,6.482,6.482,0,0,1,1.346-2.6ZM728.3,303.8q-0.159,1.7-.311,3.4-0.36,3.03-.808,6.076t-0.991,6.1a6.929,6.929,0,0,0-.2,2.078,9.7,9.7,0,0,1-.176,2.263,31.366,31.366,0,0,1-.836,4.4q-0.568,2.124-1.02,4.423l-1.017,5.17q-0.453,2.3-.824,4.491a17.111,17.111,0,0,1-1.4,4.379,6.926,6.926,0,0,0-.362,1.539,7.424,7.424,0,0,1-.363,1.54,34.154,34.154,0,0,0-.845,5.054,13.925,13.925,0,0,1-1.42,4.942,1.248,1.248,0,0,0-.249.965,2.1,2.1,0,0,1-.066.941l-0.339,1.724q-0.956,4.226-2.225,8.124T712.07,379.6l-1.615,4.873a12.74,12.74,0,0,1-.57,1.38,6.24,6.24,0,0,1-.617,1.012l-0.616,1.012a16.386,16.386,0,0,1-1.825,3.967q-1.164,1.828-2.215,3.83a28.447,28.447,0,0,1-3.267,5.084c-0.425.55-.769,1.032-1.029,1.438s-0.541.878-.845,1.415a16.165,16.165,0,0,1-6.8,6.657l-1.582.762a2.351,2.351,0,0,1-2.64-.221,7.671,7.671,0,0,1-2.521-2.2,24.469,24.469,0,0,1-1.65-2.682,36,36,0,0,1-3.694-14.271q-0.05-1.861-.183-3.616a25.555,25.555,0,0,1,0-3.64c0.137-.89.24-1.775,0.314-2.653a10.027,10.027,0,0,1,.52-2.493l0.226-1.149a9.409,9.409,0,0,1,.377-4.341,4.493,4.493,0,0,1,.659-2.138,1.625,1.625,0,0,0,.365-0.793,3.847,3.847,0,0,1,.181-0.77,8.879,8.879,0,0,0,.669-2.792,9.929,9.929,0,0,1,.509-2.585l0.226-1.148a3.767,3.767,0,0,1,.749-2.9l0.16-.207a7.339,7.339,0,0,1,.807-2.437q0.606-1.105,1.222-2.116a1.126,1.126,0,0,1-.188-1.469,8.647,8.647,0,0,1,2.354-3.474,1.513,1.513,0,0,1-.393-0.883,2.22,2.22,0,0,1,.755-0.657l0.118,0.918a19.818,19.818,0,0,0,1.586-2.909q0.651-1.484,1.38-3.07a1.639,1.639,0,0,0-.739.468,0.308,0.308,0,0,1-.363-0.327,1.045,1.045,0,0,1,.294-0.6,9,9,0,0,0,1.284-2.311,9.081,9.081,0,0,1,1.285-2.311q1.707-2.647,3.407-5.289t3.434-5.106q4.277-5.775,8.6-11.181L719.851,306q1.274-1.659,2.638-3.324t2.846-3.164a4.837,4.837,0,0,0,.886-1.047,0.892,0.892,0,0,1,.96-0.5,1.051,1.051,0,0,1,.964,1,11.619,11.619,0,0,0,.1,1.481h0A15.378,15.378,0,0,1,728.3,303.8Zm-0.672-9.62a2.166,2.166,0,0,1-.961,1.243,22.812,22.812,0,0,0-3.672,4.11,38.3,38.3,0,0,1-3.465,4.27c-0.443.43-.887,0.86-1.327,1.29a2.711,2.711,0,0,1-1.582.762,4.233,4.233,0,0,1-.958,1.99q-0.733.837-1.533,1.876a2.195,2.195,0,0,1-1.718,1.153,1.245,1.245,0,0,1,.25-0.965c0.212-.278.424-0.553,0.64-0.829a7.386,7.386,0,0,1,3.319-3.225,3.979,3.979,0,0,1,1.257-1.84,82.134,82.134,0,0,0,9.335-10.155,0.538,0.538,0,0,1,.344-0.231Zm9.942-6.873a1.037,1.037,0,0,0,.3-0.6ZM712.3,283.819l-0.847.669a2.046,2.046,0,0,0,.871-0.485Zm32.081-4.482a1.032,1.032,0,0,1,.5-0.438l0.48-.621-0.184.023a0.326,0.326,0,0,1-.32.414ZM712.3,283.819a4.291,4.291,0,0,0,2.054-1.45Zm33.041-5.725a0.164,0.164,0,0,0,.16-0.207Zm-7.814,4.547L737.3,282.3a0.377,0.377,0,0,1,.057-0.287,0.38,0.38,0,0,0,.056-0.287,0.164,0.164,0,0,1,.16-0.207,2.244,2.244,0,0,1,1.474-2.335,31.946,31.946,0,0,0,3.036-1.789l0.184-.024a0.522,0.522,0,0,0,.39.137,9.774,9.774,0,0,0-2.125,3.072,3.194,3.194,0,0,1-2.634,2.017h0Zm-20.166-3.016a5.646,5.646,0,0,0-1.671,1.52,7.051,7.051,0,0,0,1.671-1.52h0Zm32.052-6.159-0.48.622a1.035,1.035,0,0,1,.5-0.438Zm-29.6,3.419-0.32.414-0.48.622a1.03,1.03,0,0,1,.5-0.438c-0.123.016-.023-0.184,0.3-0.6h0Zm30.4-4.455-0.48.622a1.036,1.036,0,0,1,.5-0.438Zm-36.463,5.231-0.161.207-0.16.207a1.032,1.032,0,0,0-.3.6,7.23,7.23,0,0,1-1.888,2.015q-1.113.8-2.3,1.695a2.678,2.678,0,0,1-1.629.4,12.574,12.574,0,0,1-1.723-.339,9.2,9.2,0,0,1,.848-0.669l0.687-.461q1.581-.762,3.14-1.709a10.465,10.465,0,0,0,2.839-2.6c0.32-.414.511-0.375,0.574,0.113Zm6.858-1.812-0.32.414-0.48.622a1.032,1.032,0,0,1,.5-0.438c-0.124.016-.024-0.184,0.3-0.6h0Zm-3.427-1.987a3.3,3.3,0,0,1-.8,1.035l-0.207-.16a0.523,0.523,0,0,1-.231-0.343c-0.062-.488.273-0.782,1.008-0.876l0.183-.024Zm32.312-4.139q-0.984,1.062-2.06,2.13a23.78,23.78,0,0,0-2.036,2.314,0.751,0.751,0,0,1-.527.254,0.523,0.523,0,0,1-.391-0.136l-0.023-.184q1.14-1.266,2.3-2.441a27.062,27.062,0,0,0,2.117-2.417l0.55-.071Zm-44.135-10.958a0.164,0.164,0,0,0,.16-0.207Zm0.582-4.927c0.288-.16.611-0.327,0.962-0.5q1.948-.81,2.02-0.259a0.706,0.706,0,0,1-.445.9,1.671,1.671,0,0,0-.859.577,5.735,5.735,0,0,1-1.3.819,11.968,11.968,0,0,0-1.478.843,8.446,8.446,0,0,0-2.335,2.165,5.81,5.81,0,0,1-2.015,1.751,10.546,10.546,0,0,1,1.93-3.14,30.58,30.58,0,0,1,2.736-2.683C705.394,254.159,705.654,254,705.945,253.838Zm53.548,3.593-3.522,4.557a4.327,4.327,0,0,1-1.007.876l-0.207-.16-0.024-.184,0.457-.805,3.064-3.752a2.732,2.732,0,0,0,.754-1.4l-0.047-.368-0.367.047a0.725,0.725,0,0,0-.664.645,7.325,7.325,0,0,1-2.286,3.28,26.181,26.181,0,0,0-3.067,3l-5.7,6.516q-1.788,2.1-3.6,3.914a40.651,40.651,0,0,0-3.42,3.891,8.689,8.689,0,0,1-1.992,1.935,1.2,1.2,0,0,1-2.113-.476,5.482,5.482,0,0,1-.259-2.019,25.674,25.674,0,0,0-.012-3.732,24.971,24.971,0,0,1-.011-3.731l0.245-2.458a15.368,15.368,0,0,0-.056-3.352,15.192,15.192,0,0,1-.056-3.353,11.862,11.862,0,0,0,0-2.893q-0.175-1.377-.364-2.846a5.022,5.022,0,0,0-1.945-3.484l-1.249-.96a1.8,1.8,0,0,0-2.581.331,11,11,0,0,0-1.8,2.1q-1.378,2.416-2.87,4.66a34.09,34.09,0,0,0-2.662,4.821,15.938,15.938,0,0,1-2.482,4.051q-0.8,1.038-1.449,1.865a7,7,0,0,0-1.055,2,5.034,5.034,0,0,1-1.332,2.037q-0.921.865-1.748,1.717a18.293,18.293,0,0,1-2.648,2.019,4.781,4.781,0,0,0-2.021,2.5,1.45,1.45,0,0,1-1.22.716,9.017,9.017,0,0,0-3.332,1.08,8.918,8.918,0,0,1-3.328,1.08,4.127,4.127,0,0,1-1.317-.018c-0.383-.073-0.769-0.149-1.152-0.226a1.187,1.187,0,0,1-1.272-1.143,11.946,11.946,0,0,0-.616-2.628,3.973,3.973,0,0,1,.118-2.721,5.674,5.674,0,0,1,.285-0.69,1.147,1.147,0,0,0,.1-0.666,4.936,4.936,0,0,1,1.223-3.7,2.313,2.313,0,0,0,.438-0.989,24.159,24.159,0,0,1,.938-2.267c0.344-.726.666-1.421,0.96-2.083a1.109,1.109,0,0,1,.646-0.829,6.965,6.965,0,0,0,2.1-2.042q0.705-1.113,1.493-2.337l-0.186.024-0.557.071-0.07-.551a7.414,7.414,0,0,1,1-1.061c0.339-.291.678-0.582,1.019-0.877a5.186,5.186,0,0,1,2.481-1.251,1.631,1.631,0,0,1,1.069.237,1.412,1.412,0,0,0,.881.26l0.373-.048q1.3-.165,1.349,1.694l-0.132,1.883a2.864,2.864,0,0,0,.258,2.02,2.027,2.027,0,0,0,.438.5c0.136,0.108.275,0.216,0.414,0.32,0.4,0.2.68-.023,0.848-0.668a12.441,12.441,0,0,0,.619-3.906,5.563,5.563,0,0,0-1.767-3.6q-2.627-3.022-6.5-1.22a18.532,18.532,0,0,0-5.04,3.632,38.545,38.545,0,0,0-3.8,4.592q-1.1,1.637-2.114,3.164a8.688,8.688,0,0,0-1.333,3.437,4.691,4.691,0,0,1-.365.793,4.8,4.8,0,0,0-.364.794,10.16,10.16,0,0,1-.784,2.62,6.582,6.582,0,0,0-.577,2.78,13.931,13.931,0,0,0,3.006,8.177,12.231,12.231,0,0,0,7.386,4.49,8.648,8.648,0,0,0,8.441-2.574l-0.184.023a9.094,9.094,0,0,0-1.318.636,2.027,2.027,0,0,1-1.572.108,1.412,1.412,0,0,1,.972-1.151,4.522,4.522,0,0,0,1.41-.648,21.613,21.613,0,0,0,4.684-3.492,44.526,44.526,0,0,0,3.992-4.525,16.446,16.446,0,0,1,1.716-1.9q0.913-.861,1.74-1.716l0.117,0.918q1.141-1.266,2.288-2.533a3.709,3.709,0,0,0,.909-3.1,1,1,0,0,1,.457-0.805,3.73,3.73,0,0,0,1.407-1.393,16.753,16.753,0,0,1,1.177-1.737,0.608,0.608,0,0,1,.711-0.278,1.079,1.079,0,0,1,.461.687,11.038,11.038,0,0,1,.064,1.952q-0.056,1.035-.121,1.975-0.039,2.622-.339,5.363t-0.5,5.57l-0.458,8.084a7.791,7.791,0,0,1-2.735,6.323,1.006,1.006,0,0,0-.412.426,0.994,0.994,0,0,1-.412.426,24.075,24.075,0,0,0-6.65,6.358q-2.688,3.8-5.567,7.526l-1.487,1.5a43.531,43.531,0,0,0-4.061,4.719q-1.752,2.369-4.013,5.087l-4.849,5.847q-1.122,1.447-2.058,2.877t-1.873,2.853a20.665,20.665,0,0,0-2.171,3.451,30.364,30.364,0,0,1-1.986,3.427,18.363,18.363,0,0,1-1.1,1.634,7.607,7.607,0,0,0-.914,1.61q-1.5,2.8-2.921,5.6t-2.714,5.76a38.926,38.926,0,0,0-2.049,5.862,21.678,21.678,0,0,1-.852,2.816q-0.488,1.273-1.059,2.655a28.388,28.388,0,0,0-1.648,5.344q-0.509,2.584-.914,5.249a86.879,86.879,0,0,0-.867,9.257q-0.167,4.5,0,8.772a36.914,36.914,0,0,0,3,13.241,16.222,16.222,0,0,0,4.09,5.728,26.12,26.12,0,0,0,5.892,3.818,7.452,7.452,0,0,0,3.259.7,12.144,12.144,0,0,0,6.722-1.328,19.9,19.9,0,0,0,5.411-4.332,13.343,13.343,0,0,0,1.746-2.371,23.458,23.458,0,0,1,1.722-2.553q0.8-1.038,1.426-1.956a5.417,5.417,0,0,0,.831-2.253,9.329,9.329,0,0,0-1.36,1.761,19.916,19.916,0,0,1-1.337,1.944c-0.536.69-1.041,1.347-1.521,1.968a12.888,12.888,0,0,1-2.415,2.269c-0.228.152-.456,0.307-0.687,0.462q0.936-1.428,1.794-2.75t1.817-2.566a66.436,66.436,0,0,0,6.383-9.963,93,93,0,0,0,4.782-10.878q1.095-3.127,2.294-6.173a60.36,60.36,0,0,0,2.09-6.333l0.728-3.08a7.683,7.683,0,0,0,.249-0.965,0.64,0.64,0,0,1,.481-0.622l0.367-.047,0.207,0.161a2.194,2.194,0,0,1-.339,1.723,4.333,4.333,0,0,0-.659,2.137q-0.045,1.127-.085,2.251a9.437,9.437,0,0,0,.946-2.081q0.327-1.07.579-2.034l2.223-8.87q0.657-2.141,1.123-4.344t0.732-4.48l-0.617,1.013c-0.215.275-.335,0.291-0.367,0.047-0.015-.124-0.055-0.18-0.115-0.172s-0.1-.052-0.115-0.172a1.248,1.248,0,0,1,.249-0.965,1.732,1.732,0,0,1,.664-0.645c0.244-.031.406,0.257,0.485,0.871a6.167,6.167,0,0,0,.621-1.573,14.368,14.368,0,0,1,.44-1.549q0.372-1.356.672-2.606c0.2-.836.368-1.634,0.515-2.4a65,65,0,0,1,2.367-8.609,18.56,18.56,0,0,0,.909-8.609,0.7,0.7,0,0,1,.033-0.47,0.749,0.749,0,0,0,.033-0.471,2.607,2.607,0,0,1,.179-1.516,2.652,2.652,0,0,0,.179-1.516,1.016,1.016,0,0,1-.692-1.032c-0.032-.246.013-0.375,0.136-0.39a0.163,0.163,0,0,1,.207.16,2.015,2.015,0,0,0,.175.631,2.1,2.1,0,0,1,.174.631q0.563-2.872.946-5.721t0.556-5.857a13.458,13.458,0,0,0,.088-1.5,2.566,2.566,0,0,0-.464-1.434,6.927,6.927,0,0,1-.649-2.157,16.9,16.9,0,0,1-.123-2.41l0.1-3.56a25.96,25.96,0,0,1,.58-5.673,15.718,15.718,0,0,1,2.142-5.128,0.694,0.694,0,0,1-.141-1.1A18.062,18.062,0,0,0,739,283.946a4.828,4.828,0,0,1,1.132-1.359,8.42,8.42,0,0,0,1.316-1.381q1.279-1.656,2.676-3.143t2.86-3.166q2.125-2.323,4.084-4.536t3.877-4.7q0.962-1.242,1.945-2.3a8.876,8.876,0,0,1,2.382-1.8,1.658,1.658,0,0,0,.96-1.243,4.361,4.361,0,0,1,.73-1.587,1.6,1.6,0,0,0,.409-1.172l-0.094-.735a0.491,0.491,0,0,0-.621-0.48,2.714,2.714,0,0,0-1.167,1.083h0ZM775,285.307l-1.055.508-0.734.094c-0.124.016-.167-0.072-0.127-0.263a1.148,1.148,0,0,1,.216-0.5l0.64-.828a1.726,1.726,0,0,0,.457-0.805l-0.07-.551c-0.278-.212-0.47-0.249-0.575-0.113a1.6,1.6,0,0,1-1.031.692l-1.285.164a1.019,1.019,0,0,1-.6-0.3l-0.023-.184a0.164,0.164,0,0,1,.16-0.207q-0.185.024,0.3-.6a1.649,1.649,0,0,1,.675-0.553c0.236-.092.277-0.251,0.125-0.483a0.455,0.455,0,0,0-.69-0.285,2.268,2.268,0,0,1-.8.29,2.046,2.046,0,0,0-.631.174,2.015,2.015,0,0,1-.631.174,1.75,1.75,0,0,1-1.953-.683,4.925,4.925,0,0,1-.833-2.133,10.91,10.91,0,0,0-.513-2.547,6.3,6.3,0,0,1-.174-4.271,15.077,15.077,0,0,0,.834-5.146l0.037-2.618a10.338,10.338,0,0,0-.352-2.754,1.133,1.133,0,0,1,.315-1.907,0.95,0.95,0,0,0,.363-1.54,2.431,2.431,0,0,1-.49-2.364c-0.015-.12.006-0.187,0.069-0.195s0.084-.072.068-0.195l0.16-.207c0.414,0.32.687,0.037,0.824-.853a2.6,2.6,0,0,0-.1-2.227,4.216,4.216,0,0,1-.454-2.088,9.926,9.926,0,0,1,.3-2,11.193,11.193,0,0,0,.132-1.883,8.89,8.89,0,0,0-.569-2.26,4.446,4.446,0,0,0-1.441-1.775,1.43,1.43,0,0,0-2,.442,10.524,10.524,0,0,0-1.732,3.955,51.091,51.091,0,0,0-1.764,8.811q-0.469,4.356-.822,8.878-0.088,2.252-.078,4.489a21.328,21.328,0,0,0,.472,4.419,22.6,22.6,0,0,0,5.131,10.915,7.134,7.134,0,0,0,4.9,3.292h0q3.812,0.631,5.343-1.991h0Zm-5.489-60.329a7.874,7.874,0,0,1,.98-2.552l1.163-2.576q0.247-.963.487-2.022a2.959,2.959,0,0,1,1.085-1.725,1.66,1.66,0,0,0,.292-2.091,1.77,1.77,0,0,0-.567-1.513c-0.422-.381-0.911-0.785-1.461-1.213q-1.244-.962-2.043.075l-1.121,1.45a2.276,2.276,0,0,0-.421,1.08,2.308,2.308,0,0,1-.422,1.081,15.464,15.464,0,0,0-1.08,3.218q-0.351,1.633-.714,3.171a4.338,4.338,0,0,0,1.115,4.337,1.5,1.5,0,0,0,1.93.5,1.657,1.657,0,0,0,.777-1.219h0Zm40.229,47.48,0.918-.117-0.047-.368Zm18.722-11.17a7.938,7.938,0,0,0,1.648-1.7,7.962,7.962,0,0,0-1.648,1.7h0Zm1.648-1.7a5.611,5.611,0,0,0,2.839-2.6,6.184,6.184,0,0,0-2.839,2.6h0Zm2.839-2.6a4.14,4.14,0,0,0,1.648-1.7,7.987,7.987,0,0,0-1.648,1.7h0Zm4.67-4.331a6.158,6.158,0,0,0-3.022,2.627,9.85,9.85,0,0,0,3.022-2.627h0Zm0,0a1.034,1.034,0,0,0,.3-0.6Zm0.3-.6a4.585,4.585,0,0,0,1.672-1.52,5.648,5.648,0,0,0-1.672,1.52h0Zm2.839-2.6a2.916,2.916,0,0,0-1.007.876Zm-1.868-2.934a3.546,3.546,0,0,1-1.293,1.566q-0.861.577-1.706,1.245a3.071,3.071,0,0,1-1.445.372,7.766,7.766,0,0,1-2.331,3.658,75.771,75.771,0,0,1-6.146,5.92q-3.195,2.745-6.536,5.783-1.834,1.731-3.606,3.168t-3.606,3.168c-0.231.155-.459,0.31-0.688,0.462a6.933,6.933,0,0,1-.871.485,4.337,4.337,0,0,0-.468.713,1.4,1.4,0,0,1-.492.529,43.65,43.65,0,0,0-4.729,3.872,28.091,28.091,0,0,1-4.936,3.712,10.2,10.2,0,0,1-1.765.786,2.2,2.2,0,0,1-1.907-.315,0.76,0.76,0,0,1,.664-0.645,85.594,85.594,0,0,0,7.514-5.442q3.549-2.878,7.075-5.946L828.034,255l5.037-4.378,1.375-.922a13.662,13.662,0,0,1,4.006-3.686l0.183-.024,0.208,0.16Zm-37.31-1.38,0.847-.668a2.04,2.04,0,0,0-.871.485Zm-2.537-3.781a2.953,2.953,0,0,1,.951-0.588,2.9,2.9,0,0,0,.951-0.589,1.185,1.185,0,0,1,1.285-.164q0.228,0.346-.57,1.379l-0.664.645a11.283,11.283,0,0,1-3.366,2.858,11.943,11.943,0,0,0-3.526,3.064,0.46,0.46,0,0,1-.734.094,19.742,19.742,0,0,1,.89-1.794,5.093,5.093,0,0,1,1.3-1.473Zm41.193,2.563c-0.094-.735-0.477-0.808-1.148-0.227l-2.886,2.237a18.009,18.009,0,0,0-3.832,4.317,6.132,6.132,0,0,1-4.571,2.918,1.037,1.037,0,0,0-.5.438,15.319,15.319,0,0,1-2.724,2.775,33.116,33.116,0,0,0-2.77,2.408l-5.037,4.378a26.49,26.49,0,0,1-3.813,3.008,13.69,13.69,0,0,0-3.423,3.145,1.794,1.794,0,0,1-.584.541,1.859,1.859,0,0,0-.583.542,13.582,13.582,0,0,1-3.766,3.375q-2.169,1.306-4.228,2.688a26.724,26.724,0,0,1-3.655,2.055q-1.939.9-3.863,1.894a4.926,4.926,0,0,1-1.789.6l-1.836.235a3.566,3.566,0,0,1-2.6-.6,2.858,2.858,0,0,1-1.155-2.465,29.156,29.156,0,0,1,.1-3.559,8.167,8.167,0,0,1,1.069-3.31,2.3,2.3,0,0,0,.522-1.747,7.6,7.6,0,0,1,.2-1.332l0.956-2.736a11.3,11.3,0,0,1,.579-2.034,5.37,5.37,0,0,1,1.177-1.737,4.024,4.024,0,0,0,.812-0.944c0.205-.335.4-0.7,0.605-1.1q1.5-2.8,3.025-5.52a26.849,26.849,0,0,1,3.646-5.04l3.409-3.983-1.422.556c-0.247.031-.375-0.014-0.391-0.137l-0.047-.367a1.2,1.2,0,0,1,.685-1.208,3.905,3.905,0,0,1,1.514-.567c0.367-.047.558-0.007,0.574,0.113l0.094,0.735-0.16.207a4.789,4.789,0,0,1,.033,3.168,3.609,3.609,0,0,0,.352,2.755,1.679,1.679,0,0,0,1.036.8q0.39,0.138,1.007-.876l2.03-4.553a2.214,2.214,0,0,0,.085-2.25,15.706,15.706,0,0,0-2.537-3.782,2.727,2.727,0,0,0-3.262-.7,18.922,18.922,0,0,0-5.019,3.07,27.047,27.047,0,0,0-4.039,4.156l-3.441,4.454-0.777,1.219a13.345,13.345,0,0,0-1.975,3.52,13.431,13.431,0,0,1-1.975,3.519,2.885,2.885,0,0,0-.593,1.2,9.616,9.616,0,0,1-.695,1.862,9.492,9.492,0,0,0-.694,1.862q-0.773,2.715-1.477,5.228a27.944,27.944,0,0,0-.925,5.158,10.661,10.661,0,0,0,.842,5.118,18.942,18.942,0,0,0,1.386,2.809,23.173,23.173,0,0,0,1.937,2.738,8.032,8.032,0,0,0,1.887,1.625q1.011,0.618,2.025,1.234a4.059,4.059,0,0,0,2.424.716,12.842,12.842,0,0,1,2.537.142,9.386,9.386,0,0,0,4.842-.807,31.612,31.612,0,0,0,4.262-2.413q3.251-2.28,6.035-4.6t5.461-4.712l11.308-10.781q1.166-1.08,2.175-1.958a9.525,9.525,0,0,0,1.784-2.095,7.866,7.866,0,0,0-3.045,2.443,34.414,34.414,0,0,1-5.527,5.654q-3.129,2.548-5.965,5.15t-5.586,5.195a30.983,30.983,0,0,1-6.23,4.531c-0.459.31-.887,0.612-1.283,0.911a3.107,3.107,0,0,1-1.513.567c-0.368.047-.567-0.05-0.6-0.3l0.136-.39,0.848-.669q4.4-3.546,8.657-6.708a83.931,83.931,0,0,0,8.083-6.821q4.007-3.685,7.909-7.453t8.093-7.475q1.668-1.518,3.446-2.961a18.832,18.832,0,0,0,3.055-3.1,2.814,2.814,0,0,1,1.374-.923q0.159-.2.622,0.481l0.664-.645a3.078,3.078,0,0,0,.842-2.161,1.906,1.906,0,0,0-1.52-1.672h0a1.012,1.012,0,0,1-.692-1.031h0Z" transform="translate(-0.375)"/>
</svg>
