<?xml version="1.0" encoding="utf-8"?>
<!-- Generator: Adobe Illustrator 21.0.0, SVG Export Plug-In . SVG Version: 6.00 Build 0)  -->
<svg version="1.1"
	 id="svg2" inkscape:version="0.48.4 r9939" sodipodi:docname="Nouveau document 1" xmlns:cc="http://creativecommons.org/ns#" xmlns:dc="http://purl.org/dc/elements/1.1/" xmlns:inkscape="http://www.inkscape.org/namespaces/inkscape" xmlns:rdf="http://www.w3.org/1999/02/22-rdf-syntax-ns#" xmlns:sodipodi="http://sodipodi.sourceforge.net/DTD/sodipodi-0.dtd" xmlns:svg="http://www.w3.org/2000/svg"
	 xmlns="http://www.w3.org/2000/svg" xmlns:xlink="http://www.w3.org/1999/xlink" x="0px" y="0px" viewBox="0 0 115.4 47.3"
	 style="enable-background:new 0 0 115.4 47.3;" xml:space="preserve">
<style type="text/css">
	.st0{fill:#FFFFFF;}
</style>
<sodipodi:namedview  bordercolor="#666666" borderopacity="1.0" fit-margin-bottom="1" fit-margin-left="1" fit-margin-right="1" fit-margin-top="1" id="base" inkscape:current-layer="layer1" inkscape:cx="23.791383" inkscape:cy="411.30405" inkscape:document-units="px" inkscape:pageopacity="0.0" inkscape:pageshadow="2" inkscape:window-height="1017" inkscape:window-maximized="1" inkscape:window-width="1920" inkscape:window-x="-8" inkscape:window-y="-8" inkscape:zoom="0.49497475" pagecolor="#ffffff" showgrid="false">
	</sodipodi:namedview>
<path id="path3841" inkscape:connector-curvature="0" class="st0" d="M1.7,24.6c0.5-0.1,1,0.4,1.5,0.5c1.8,0.6,3.7,0.8,5.5,0.2
	c0.6-0.3,1.1-0.8,1.2-1.4c0-1.1-0.9-1.9-1.8-2.7c-1.9-1.8-4.9-3-5.7-5.7c-0.1-0.7,0-1.4,0.4-1.9c1.1-2.4,3.5-3.8,5.9-4.1
	c1.4-0.2,2.6,0.2,3.8,0.5c-0.1,0.9-0.3,1.9-0.3,2.7c-0.6,0.2-0.9-0.4-1.5-0.3C9,12,7,11.7,5.4,12.7C5,13,4.7,13.6,4.9,14.1
	c1.9,2.2,4.5,3.6,6.5,5.5c0.4,0.4,0.5,1,0.8,1.5c0,0.9,0.2,1.6-0.3,2.3c-0.8,2.5-3.3,4.6-5.9,4.8c-1.3,0.2-2.7-0.2-4-0.6
	c-0.4-0.1-0.7-0.1-1.1-0.3C1.3,26.4,1.5,25.5,1.7,24.6"/>
<path id="path3843" inkscape:connector-curvature="0" class="st0" d="M80.5,41.5c0.6-1,1.5-2,2.4-2.7c0.1-0.1,0.2-0.2,0.1-0.4
	c0.1-0.3,0.5-0.1,0.7-0.2c0.5-0.5,1-1.1,1.6-1.4c0.3-0.6,1-1,1.5-1.3c0.4-0.3,0.8-0.9,1.3-0.8c0.6,0.7,1.1-0.6,1.7-0.7
	c1.1-0.7,2.4-1.5,3.4-2.4c0.2-0.2,0.3-0.5,0.3-0.8c0.4-0.1,0.2,0.3,0.4,0.4c-0.3,0.4,0,0.8,0.1,1.2c0.3,0.3,0.6,0.1,0.9,0.1
	c1.2-0.3,0.5-1.6,0.9-2.3c-0.1-0.2,0-0.3-0.1-0.5c0.4-0.6,0-1.4,0.3-2.1c-0.5-0.5,0.4-1,0-1.4c0.1-0.3,0.4-0.9,0.1-1.2
	c0.3-0.3-0.1-0.7,0.2-0.9c-0.1-0.5-0.1-1.1,0.3-1.4c0-0.5-0.3-1.3,0.2-1.6c-0.2-0.6,0.4-0.9,0.2-1.4c0.5-0.5,0.5-1.3,0.2-1.9
	c-0.3-0.1-0.7,0-1,0.2c-0.1,1-1,0-1.4,0.7c-0.3,0.1-0.1,0.5-0.5,0.5c-0.4-0.2,0.1-0.8,0.2-1.2c0.4-0.3,0-0.6,0.3-0.9
	c0-0.3-0.3-0.7-0.1-1c0-0.8,0.1-1.7,0.9-2.1c0.5-0.4,1.2-0.2,1.5-0.7c0.4-0.2,0.7-0.4,1.2-0.3c0.4-0.3,1.1-0.3,1.1-0.9
	c0.3-0.9,0.6-1.8,0.8-2.7c0.3-0.2,0-0.6,0.3-0.8c0.1-0.6,0.4-1.2,0.5-1.9c0.6-0.5,0-1.4,0.5-1.9c0.1-0.4-0.2-0.8,0.2-1
	c-0.1-0.4,0.1-0.8,0-1.2c0.4-0.3,0.9,0,1.3-0.3c0.4,0,1,0.2,1.3-0.1c0.8,0.5,1.3-0.6,2-0.2c0.8-0.2,1.8,0,2.4-0.4
	c0.3-0.1,0.8,0.1,1-0.1c0.8-0.2,1.8,0.1,2.5-0.3c0.6,0,1.2-0.2,1.7-0.1l0.1,0.2c-0.3,0.5-0.7,1-0.6,1.6c-0.3,0.5-0.6,1-1.1,1.4
	c-0.2,0-0.4-0.3-0.6-0.1c-0.3,0.4,0.3,0.5,0.1,0.9C111.7,5,111,5,110.6,4.6c-0.7-0.3-1.1,0.7-1.9,0.2c-0.8,0.4-1.9-0.1-2.5,0.8
	c-0.4,0.2-0.9-0.1-1.1,0.5c-0.2,0.2-0.6,0.1-0.8,0.3c-0.6,0.5-1.4,0.4-2.1,0.7c-0.3,0.4,0,0.9-0.5,1.3c0.4,0.8-0.7,0.9-0.4,1.7
	c0.1,0.3-0.2,0.4-0.2,0.6c0.1,0.4-0.2,0.8,0.3,1c1.1,0.1,2.2-0.2,3.4-0.2c0.7-0.2,1.3-0.5,1.8-0.8c0.8-0.8,2.3,0.1,3-0.8
	c0.2,0,0.5-0.1,0.5,0.1c-0.5,0.9-0.4,2-1.3,2.7c0.3,0.7-0.5,1-0.8,1.5c-0.6,0.3-1.3-0.3-1.7,0.5c-0.8,0.1-1.9-0.5-2.3,0.5
	c-0.7,0.2-1.4,0.2-2,0.7c-0.9-0.2-1.2,0.9-2.1,0.7c-0.5,0.3-1.2,0.3-1.2,1c0.1,0.7-0.4,1.2-0.3,1.9c-0.5,0.6-0.7,1.4-0.7,2.2
	c-0.4,0.4,0.1,1.1-0.4,1.5C97,23.5,97.4,23.8,97,24c0.1,0.2,0.1,0.5-0.1,0.7c0.2,0.7,0,1.4,0.1,2.2l-0.2,0.3l0,2.2
	c-0.3,0.4,0,0.8-0.2,1.2c0.2,0.4-0.2,0.9,0.1,1.3c-0.1,0.9-0.3,1.6,0,2.4c-0.3,0.4,0.3,0.7,0,1.1c-1.5-0.4-2.1,1.3-3.3,1.7
	c-0.8,0.6-1.9,1.1-2.5,2.1c-0.5-0.1-0.7,0.4-1.2,0.5c-0.2,0.8-1.1,0.5-1.2,1.3c-0.4,0.1-0.4,0.5-0.6,0.7c-0.3,0.2-1,0.1-0.7,0.7
	c0.1,0.1,0,0.2,0,0.2c-0.3,0.3-0.7,0.2-0.9,0.6c-0.4,0.2-0.5,0.8-1,0.9c-0.2,0.6-1.1,1.1-1.2,1.8c0.1,0.3,0.6,0.2,0.8,0.1
	c0.9-0.6,1.3-1.3,2.2-1.9c0.2-0.1,0.4,0.2,0.3,0.3c-0.9,0.4-1.4,1.4-2.3,1.9l-3,0c0-0.6-0.1-1.2-0.6-1.6c-0.2,0-0.4,0.3-0.5,0.4
	c-0.4-0.1-0.1-0.4-0.3-0.6c-0.9-0.4-0.4-1.6-0.5-2.3L80.5,41.5"/>
<path id="path3845" inkscape:connector-curvature="0" class="st0" d="M87.6,43.2c0.1-0.1,0.3,0,0.4,0c0.1,0.1,0.2,0.2,0.1,0.3
	c-0.2,0-0.4,0.3-0.6,0.2C87.2,43.6,87.4,43.3,87.6,43.2"/>
<path id="path3847" inkscape:connector-curvature="0" class="st0" d="M88.3,41.8c0.2,0,0.3,0,0.4,0.2c0,0.2-0.1,0.3-0.3,0.4
	C88.1,42.3,87.9,41.8,88.3,41.8"/>
<path id="path3849" inkscape:connector-curvature="0" class="st0" d="M89.7,40.8c0.2-0.2,0.2-0.5,0.5-0.6c0.1,0,0.3,0.1,0.3,0.3
	c-0.4,0.4-0.7,0.7-1.1,1.2c-0.2,0.1-0.4,0.3-0.6,0.1C88.7,41.2,89.5,41.3,89.7,40.8"/>
<path id="path3851" inkscape:connector-curvature="0" class="st0" d="M30.3,9L30,11l-0.4,2.6l-1.2,7.9c-0.1,0.9-0.2,1.8-0.3,2.9
	l0,0.1c0,0.7,0.2,1.1,0.6,1.1c0.4,0,0.8-0.3,1.7-1l0.4,0.7c-1.6,1.5-3.2,2.5-4,2.5c-1.1,0-1.6-1.2-1.6-3.5c0-1.4,0.2-2.6,0.6-5.4
	c-1,2.5-1.4,3.5-2.3,4.9c-0.4,0.7-0.9,1.4-1.4,2c-1.2,1.5-2.4,2.2-3.6,2.2c-1.9,0-3-1.9-3-5c0.1-3.5,1.6-7.4,3.9-9.9
	c2-2.2,4.6-3.6,6.7-3.6c0.8,0,1.4,0.1,2.3,0.5C28.7,10.1,30.3,9,30.3,9z M27,11.8c-0.7-0.1-1.1-0.2-1.7-0.2c-2,0-2.9,0.6-3.9,2.4
	c-1.3,2.4-2.5,6.7-2.5,9.2c0,1.7,0.3,2.5,1.1,2.5c0.6,0,1.4-0.8,2.4-2.5c0.9-1.5,1.6-2.8,2.3-4.6c0.8-1.9,1.2-3.1,1.8-5.3L27,11.8"
	/>
<path id="path3853" inkscape:connector-curvature="0" class="st0" d="M45.6,9.4c-0.4,1.2-0.5,1.5-0.8,2.8c-1.1-0.3-1.8-0.4-2.7-0.4
	c-1.7,0-2.3,0.4-3.1,2.1c-1.1,2.3-1.7,5.1-1.7,7.4c0,2.8,0.9,4.6,2.4,4.6c1.6,0,3.1-1.1,5.1-3.6l0.6,0.4l-0.2,0.3
	c-2.2,3.4-4.6,5.3-6.9,5.3c-2.7,0-4.5-2.7-4.5-6.7c0-6.4,4.9-12.2,10.3-12.2C44.8,9.3,45,9.3,45.6,9.4"/>
<path id="path3855" inkscape:connector-curvature="0" class="st0" d="M58.6,22.5l0.7,0.5c-2.2,3.2-5.1,5.1-7.6,5.1
	c-2.8,0-4.6-2.3-4.6-6c0-2.8,1.1-6,2.9-8.3c0.7-1,1.7-1.9,2.9-2.8c1.6-1.3,3-1.8,4.3-1.8c1.9,0,3.1,1.2,3.1,3c0,3.8-4,7.4-9.8,8.7
	c0,0.7,0,0.8,0,1.2c0,2.6,1,4.1,2.6,4.1C54.7,26.2,56.3,25.1,58.6,22.5z M50.6,19.7c3.4-1.1,6.6-2.8,6.6-6.7c0-1-0.7-1.5-1.9-1.5
	c-1.1,0-1.6,0.4-2.5,1.8C51.7,15.2,51.1,17,50.6,19.7"/>
<path id="path3857" inkscape:connector-curvature="0" class="st0" d="M69.7,9c-0.6,2.4-0.8,3.3-1.1,5.1l-0.9,5.7
	c1.2-2.9,1.9-4.2,3.3-6.1c1.9-2.7,3.6-4,5.2-4c1.2,0,1.7,0.7,1.7,2.2c0,0.4-0.1,1.5-0.2,2.1l-0.4,2.1l-0.8,5.2
	c1.2-2.8,1.7-3.9,2.7-5.6c0.6-1.1,1.4-2.2,2.1-3.1c1.4-1.8,2.9-2.8,4.1-2.8c1.1,0,1.7,0.7,1.7,2c0,0.3-0.1,0.7-0.3,2.1
	c-0.1,0.7-0.2,1.3-0.3,1.6l-1.2,6.3c-0.3,1.5-0.5,2.7-0.5,3.2c0,0.7,0.2,1.1,0.7,1.1s0.9-0.2,2.2-1l0.4,0.5
	c-1.9,1.7-3.8,2.7-4.9,2.7c-1.2,0-1.8-0.8-1.8-2.5c0-0.9,0.2-1.9,0.6-4l1.3-6.9l0.2-1.1c0-0.1,0-0.2,0-0.3c0-0.4-0.1-0.7-0.4-0.7
	c-0.4,0-0.9,0.4-1.5,1.4c-0.9,1.3-1.3,2-1.4,2.1c-0.6,0.9-1.2,1.9-1.8,3.2c-1.2,2.2-2,4.1-2.7,6.1l-0.5,1.6l-0.1,0.4l-2.9,0.4
	l2-12.9c0.1-0.8,0.2-1.4,0.2-1.6c0-0.6-0.1-0.9-0.5-0.9c-0.9,0-3.1,3-4.8,6.5c-0.9,1.9-1.3,2.9-2.3,6c-0.3,0.9-0.5,1.6-0.6,2
	l-0.2,0.5l-2.9,0.4l2.6-16.5c-0.9,0.3-1.1,0.3-2,0.5l0.1-0.9C66.2,10.6,68.4,9.8,69.7,9"/>
</svg>
